<?xml version="1.0" standalone="no"?>
<!DOCTYPE svg PUBLIC "-//W3C//DTD SVG 20010904//EN"
 "http://www.w3.org/TR/2001/REC-SVG-20010904/DTD/svg10.dtd">
<svg version="1.0" xmlns="http://www.w3.org/2000/svg"
 width="1600.000000pt" height="2000.000000pt" viewBox="0 0 1600.000000 2000.000000"
 preserveAspectRatio="xMidYMid meet">
<metadata>
Created by potrace 1.16, written by Peter Selinger 2001-2019
</metadata>
<g transform="translate(0.000000,2000.000000) scale(0.100000,-0.100000)"
fill="#000000" stroke="none">
<path d="M9172 18135 c-86 -19 -151 -53 -257 -134 -96 -75 -115 -95 -115 -123
0 -26 16 -22 69 16 87 63 217 110 357 128 164 21 312 -23 477 -143 151 -110
322 -264 311 -280 -3 -5 -2 -8 3 -7 16 5 174 -145 164 -155 -9 -9 -59 12 -83
37 -19 18 -294 155 -428 213 -58 24 -118 51 -135 58 -107 47 -295 60 -372 25
-24 -10 -43 -26 -43 -35 0 -18 9 -19 44 -5 14 5 45 10 68 12 51 3 208 -21 208
-32 0 -4 12 -5 26 -2 18 3 25 1 20 -6 -4 -6 2 -8 14 -5 14 4 19 1 17 -8 -2 -8
-2 -11 0 -6 3 4 12 7 21 7 24 0 292 -118 398 -174 49 -27 139 -75 200 -107
114 -61 209 -141 241 -204 9 -16 35 -55 57 -85 79 -104 283 -445 328 -547 32
-73 44 -86 54 -58 12 31 -161 367 -292 567 -35 54 -64 102 -64 108 0 15 36 12
50 -5 7 -8 18 -15 24 -15 7 0 23 -10 36 -22 30 -28 90 -69 90 -62 0 3 -7 18
-15 34 -14 27 -26 35 -48 31 -12 -2 -33 22 -41 47 -4 13 -16 22 -27 22 -12 0
-23 10 -30 27 -14 37 -38 63 -58 63 -10 0 -35 24 -56 53 -86 113 -208 248
-334 366 -72 68 -130 126 -128 128 2 2 60 -22 130 -52 69 -30 137 -55 150 -55
15 0 31 -9 41 -25 40 -61 114 -110 184 -121 37 -6 41 -9 52 -50 7 -25 17 -47
21 -50 5 -3 9 -10 9 -15 0 -5 -14 -2 -31 6 -17 9 -33 14 -36 11 -3 -2 14 -14
36 -26 23 -11 76 -44 117 -71 71 -48 76 -50 89 -32 8 10 15 22 15 26 0 16 -95
132 -160 195 -250 244 -575 411 -980 506 -202 47 -282 54 -388 31z"/>
<path d="M6307 17863 c-9 -16 -25 -69 -37 -119 -19 -76 -21 -108 -17 -219 5
-145 31 -254 91 -380 39 -84 80 -126 152 -157 30 -13 54 -29 54 -36 0 -7 5
-10 12 -6 6 4 8 3 5 -4 -11 -17 -116 16 -160 51 -91 73 -292 303 -345 397 -18
30 -41 66 -52 80 l-21 25 7 -35 c26 -136 263 -460 389 -535 132 -77 384 -72
572 11 l78 34 26 -30 c27 -32 45 -40 35 -15 -9 24 39 18 84 -10 22 -14 40 -29
40 -33 0 -19 92 -54 129 -50 54 5 42 -15 -24 -40 -98 -38 -197 -46 -321 -27
-155 24 -228 33 -233 29 -2 -2 7 -13 20 -25 13 -11 18 -18 11 -14 -7 4 -48 9
-90 11 -42 2 -92 6 -110 9 -18 3 -85 5 -150 5 -64 -1 -125 -1 -134 -1 -10 0
-18 -4 -18 -10 0 -5 42 -9 93 -10 50 0 128 -4 172 -9 248 -24 302 -33 365 -60
36 -15 79 -33 95 -39 32 -12 166 -31 177 -25 3 2 29 6 57 8 28 3 65 12 83 20
17 9 37 16 44 16 26 0 130 114 157 173 15 32 34 60 41 63 8 3 12 12 9 19 -3 9
4 16 20 20 14 4 38 20 53 37 l29 31 -32 -18 c-18 -11 -36 -16 -40 -11 -4 4 -3
10 3 14 6 4 13 15 17 25 3 9 23 24 44 33 79 35 102 49 94 57 -4 4 9 41 31 81
21 41 49 111 62 157 39 136 65 243 60 248 -2 2 -31 -8 -64 -24 -42 -20 -56
-31 -48 -38 9 -6 8 -7 -4 -3 -27 8 -177 -77 -241 -137 -31 -30 -59 -52 -62
-49 -3 3 -5 0 -5 -5 0 -6 3 -13 8 -16 4 -2 1 -2 -7 0 -8 2 -23 -6 -34 -18 -16
-17 -17 -23 -6 -31 10 -7 8 -8 -7 -3 -17 4 -30 -4 -61 -40 -38 -44 -41 -46
-128 -59 -50 -8 -104 -21 -122 -30 -32 -17 -103 -89 -103 -105 0 -5 -10 -11
-23 -15 -46 -11 -214 -27 -297 -27 -79 0 -86 1 -107 26 -47 54 -43 98 17 174
55 69 211 171 300 195 74 21 190 61 190 66 0 4 -11 12 -25 18 -16 8 -25 20
-25 35 0 26 72 181 89 191 6 4 11 14 11 22 0 65 -148 -106 -176 -204 -18 -62
-34 -74 -129 -95 -213 -47 -330 -150 -343 -302 -6 -79 -17 -82 -73 -22 -49 51
-89 133 -124 252 -40 131 -46 328 -16 439 23 84 16 124 -12 69z"/>
<path d="M8130 17765 c-18 -21 13 -52 100 -104 111 -66 125 -109 68 -212 l-33
-61 -91 -29 c-72 -23 -93 -34 -102 -54 -6 -14 -31 -34 -57 -46 -45 -21 -95
-70 -95 -92 0 -15 18 -43 22 -37 2 3 12 17 21 32 22 36 113 88 153 88 47 0 51
-25 13 -73 l-32 -40 27 -20 27 -20 -42 -43 c-39 -39 -48 -44 -89 -44 -85 0
-96 -46 -21 -85 27 -13 52 -29 55 -34 11 -18 -35 -23 -104 -11 -80 13 -107 5
-115 -38 -4 -15 -8 -36 -10 -46 -6 -31 15 -178 30 -208 16 -33 9 -42 -19 -23
-25 18 -86 20 -86 3 0 -7 37 -52 83 -99 92 -97 100 -101 457 -233 314 -116
510 -221 599 -321 53 -60 80 -85 90 -85 6 0 -8 19 -29 42 -22 23 -38 43 -35
46 7 7 102 -62 170 -123 33 -30 74 -59 90 -65 27 -9 28 -8 12 4 -11 8 -14 17
-8 20 5 4 26 -8 46 -25 34 -30 35 -30 26 -7 -15 40 -92 148 -106 148 -6 0
-198 162 -220 186 -34 36 -123 103 -130 96 -5 -4 -5 -2 -2 4 8 14 -18 38 -32
29 -6 -3 -9 0 -6 7 3 7 -33 48 -82 93 -82 75 -87 67 -11 -17 18 -21 44 -52 58
-70 14 -17 35 -42 48 -55 13 -13 20 -23 18 -23 -6 0 19 -32 78 -97 21 -24 36
-43 33 -43 -7 0 -121 87 -237 180 -41 33 -127 87 -190 119 -63 32 -139 73
-168 90 -29 17 -55 31 -57 31 -2 0 -45 25 -95 55 -50 30 -94 55 -99 55 -23 0
-40 37 -34 77 7 51 23 59 59 30 16 -12 87 -37 163 -58 351 -96 396 -111 469
-155 65 -39 175 -115 212 -146 68 -57 274 -250 347 -324 85 -87 123 -108 150
-82 11 12 13 27 8 60 -8 50 -10 55 -43 83 l-23 19 20 -46 c17 -40 18 -49 6
-65 -12 -17 -27 -4 -185 156 -94 95 -169 176 -166 178 7 7 56 11 52 4 -3 -4 9
-15 26 -24 l31 -18 -24 31 c-13 18 -47 42 -75 53 -28 12 -90 45 -140 73 -49
28 -120 68 -157 88 -65 36 -68 39 -62 67 7 31 -19 82 -67 136 -23 24 -15 47
13 40 11 -3 17 -1 13 4 -3 5 21 10 53 10 56 1 55 2 -32 14 -92 12 -139 30
-188 71 -16 13 -82 51 -148 85 -66 34 -119 67 -119 75 0 18 51 44 86 44 39 0
267 -62 256 -69 -5 -3 3 -18 19 -34 27 -26 29 -26 38 -8 8 15 7 20 -5 25 -9 3
-20 3 -26 0 -6 -4 -9 -1 -6 7 3 8 13 16 24 18 30 5 44 21 44 52 0 38 -23 52
-145 87 -64 18 -100 33 -100 42 0 21 134 89 175 89 27 1 32 -2 20 -10 -12 -8
-11 -9 6 -5 30 9 72 -24 426 -332 65 -57 123 -100 128 -97 6 4 9 3 8 -2 -2 -4
51 -62 117 -128 66 -66 136 -138 155 -160 40 -46 178 -227 202 -266 9 -14 24
-34 33 -43 22 -21 17 -21 -143 12 -73 16 -129 25 -125 21 5 -4 37 -19 73 -34
36 -15 72 -33 80 -40 26 -22 93 -52 148 -66 48 -12 88 -41 104 -76 7 -17 68
-66 74 -60 4 4 -10 27 -31 52 -39 48 -41 64 -5 45 17 -9 26 -8 45 4 22 15 25
14 40 -6 8 -12 15 -18 15 -13 0 5 -33 59 -74 120 -63 92 -176 314 -176 343 0
11 -69 75 -130 122 -25 19 -47 37 -50 40 -13 16 -132 81 -137 76 -4 -3 2 -13
13 -20 14 -11 16 -18 8 -26 -16 -16 -68 38 -54 56 10 11 -40 63 -125 133 -17
14 -57 49 -90 79 -33 30 -105 86 -160 125 -65 47 -93 73 -82 75 26 5 20 29
-10 40 l-28 10 25 1 c14 0 36 -6 50 -14 14 -8 38 -14 53 -15 16 0 38 -5 49
-11 13 -7 18 -7 14 -1 -3 6 2 12 11 14 26 5 -120 68 -204 88 -69 16 -213 90
-213 109 0 12 28 18 162 32 136 15 167 10 393 -53 96 -27 151 -38 175 -34 20
3 29 2 22 -3 -11 -7 -11 -9 0 -14 151 -60 297 -121 348 -146 36 -18 76 -33 90
-35 23 -3 119 -44 130 -56 17 -18 62 -40 71 -35 5 4 8 2 7 -4 -2 -5 58 -50
132 -100 117 -79 185 -128 319 -230 17 -13 28 -28 24 -34 -3 -5 -1 -7 5 -3 6
3 16 0 24 -7 7 -8 24 -19 36 -26 12 -6 47 -32 77 -57 30 -24 55 -40 55 -34 0
5 -5 10 -11 10 -8 0 -7 6 2 18 12 15 12 16 -1 6 -12 -9 -18 -9 -28 2 -7 7 -12
16 -11 20 0 3 -3 9 -7 12 -4 4 -4 1 1 -7 5 -9 4 -12 -2 -8 -6 4 -9 21 -7 39 4
30 -3 40 -83 116 -156 149 -347 291 -503 375 -34 19 -49 31 -41 36 17 11 3 20
-99 68 -110 52 -132 59 -124 39 8 -20 -16 -13 -171 54 -66 28 -137 58 -157 67
-21 8 -38 22 -38 30 0 10 -6 13 -17 9 -10 -4 -14 -4 -10 0 4 5 -21 18 -55 30
-35 11 -109 37 -166 57 -134 47 -331 87 -462 95 -168 9 -178 8 -215 -28 -18
-18 -38 -29 -43 -26 -6 3 -24 30 -40 60 -31 53 -95 114 -184 174 -51 35 -79
40 -98 17z m785 -745 c41 -28 90 -63 107 -79 18 -15 60 -46 92 -69 33 -23 91
-72 129 -109 61 -59 67 -68 53 -81 -14 -14 -18 -14 -40 7 -14 13 -29 20 -34
17 -6 -3 -25 12 -43 35 -33 42 -103 111 -174 170 -22 19 -56 50 -77 70 -21 20
-41 33 -44 30 -4 -3 -4 0 0 7 4 7 2 12 -7 12 -8 0 -22 9 -32 20 -29 32 -9 24
70 -30z m465 -410 c53 -39 55 -39 63 -18 7 21 10 20 53 -23 25 -24 56 -64 69
-89 12 -25 33 -54 45 -65 51 -46 227 -291 216 -302 -2 -2 -22 -1 -46 3 -47 8
-65 24 -118 104 -20 30 -39 57 -42 60 -3 3 -18 23 -35 45 -16 22 -31 42 -35
45 -3 3 -17 21 -32 40 -14 19 -40 51 -58 70 -101 110 -151 170 -144 170 5 0
34 -18 64 -40z"/>
<path d="M8965 17643 c6 -6 77 -41 159 -78 82 -37 184 -87 227 -111 44 -24 83
-44 87 -44 8 0 42 86 42 106 0 17 -277 92 -436 118 -18 3 -45 8 -60 12 -19 4
-26 3 -19 -3z"/>
<path d="M10750 17351 c0 -43 195 -251 213 -227 6 7 7 4 3 -7 -4 -13 5 -30 29
-55 19 -20 35 -40 35 -44 0 -17 50 -53 118 -86 40 -19 75 -33 77 -30 7 7 -107
143 -117 140 -5 -1 -7 2 -4 7 3 5 -8 21 -25 35 -17 14 -28 26 -26 26 3 0 -8
14 -25 30 -30 31 -45 39 -32 18 4 -7 3 -8 -5 -4 -6 4 -9 11 -6 16 5 8 -67 72
-120 106 -16 10 -39 27 -49 36 -11 10 -23 18 -27 18 -4 0 -15 7 -23 16 -9 8
-16 11 -16 5z"/>
<path d="M7180 17299 c-185 -64 -331 -125 -387 -163 -67 -46 -13 -36 104 18
106 48 360 146 381 146 4 0 17 7 28 15 18 14 17 14 -11 14 -16 0 -68 -14 -115
-30z"/>
<path d="M11116 16909 c5 -8 36 -55 70 -104 33 -50 64 -97 67 -105 4 -8 17
-31 28 -50 44 -72 107 -189 183 -343 43 -87 81 -156 83 -153 2 2 0 21 -6 43
-6 21 -18 70 -27 108 -30 129 -104 299 -199 458 -47 80 -62 96 -101 115 -25
12 -50 19 -56 16 -7 -4 -8 -2 -4 4 4 7 3 12 -3 12 -5 0 -17 3 -27 7 -13 5 -15
3 -8 -8z"/>
<path d="M11706 16813 c3 -32 21 -101 40 -153 60 -173 179 -606 203 -745 5
-27 15 -78 21 -113 9 -47 9 -67 1 -75 -6 -6 -11 -21 -11 -33 0 -14 -15 -34
-42 -56 -24 -18 -83 -69 -133 -113 -138 -124 -163 -141 -180 -124 -16 16 -23
88 -10 109 13 21 -46 -24 -75 -56 l-25 -29 24 20 c21 17 23 17 18 3 -3 -9 -1
-18 4 -20 13 -4 22 -79 12 -94 -30 -40 -535 -384 -565 -384 -4 0 -8 11 -8 24
0 17 -5 23 -17 22 -17 -3 -18 -9 -10 -61 3 -14 -152 -75 -190 -75 -46 0 -41
14 17 46 28 15 50 31 50 36 0 21 -33 17 -96 -12 -161 -73 -222 -87 -328 -75
-47 5 -66 11 -68 22 -3 18 -76 26 -94 12 -7 -5 -45 -16 -85 -24 -41 -8 -96
-21 -123 -30 -35 -10 -93 -15 -196 -15 -118 0 -150 -3 -160 -15 -7 -9 -9 -22
-4 -32 4 -10 8 -20 9 -23 25 -73 93 -161 173 -222 59 -46 66 -50 133 -87 24
-13 80 -61 124 -106 44 -45 97 -92 118 -105 57 -34 138 -60 166 -55 22 5 23 4
6 -4 -65 -29 -63 -79 4 -143 28 -26 51 -50 51 -53 0 -4 -11 -23 -25 -43 -35
-52 -32 -82 11 -122 26 -23 33 -35 23 -40 -6 -5 -18 -6 -24 -4 -35 14 -19 -64
19 -95 21 -17 21 -35 0 -27 -11 4 -15 2 -12 -6 3 -7 13 -37 22 -65 16 -49 34
-76 23 -34 -2 10 4 29 14 42 18 24 18 24 12 2 -3 -13 -10 -23 -15 -23 -5 0 -6
-5 -3 -10 4 -6 10 -8 15 -5 4 3 10 -2 13 -10 4 -10 1 -12 -11 -9 -13 5 -14 4
-3 -4 13 -9 121 14 151 33 15 9 12 31 -9 67 -22 34 -19 48 8 48 20 0 141 -131
141 -153 0 -8 -58 -78 -130 -155 -141 -152 -167 -169 -242 -157 -45 8 -88 43
-88 73 0 68 -66 6 -71 -68 -4 -47 1 -60 21 -60 16 0 20 -7 20 -34 0 -18 7 -50
15 -71 9 -20 13 -46 10 -58 -12 -39 -67 -191 -80 -222 -8 -16 -19 -47 -25 -67
-6 -21 -16 -38 -22 -38 -6 0 -7 -7 -4 -16 4 -10 2 -13 -6 -8 -8 5 -9 2 -5 -10
4 -9 1 -39 -5 -67 -9 -40 -14 -47 -20 -33 -6 13 -7 8 -3 -14 3 -21 1 -31 -6
-27 -6 4 -7 -3 -3 -21 5 -19 4 -25 -5 -20 -7 4 -11 0 -11 -11 0 -11 -6 -25
-12 -32 -10 -11 -10 -13 0 -7 15 9 17 -25 2 -40 -14 -14 -41 -160 -33 -180 5
-13 8 -13 15 -2 5 8 6 -6 2 -37 -3 -27 -10 -54 -15 -60 -15 -15 -86 -54 -304
-165 -110 -56 -204 -106 -209 -110 -5 -5 -15 -6 -22 -3 -8 3 -14 0 -14 -6 0
-6 -5 -11 -11 -11 -6 0 -22 -9 -36 -20 -14 -11 -31 -20 -37 -20 -17 0 83 69
129 90 125 55 258 124 248 127 -7 2 -22 -1 -34 -8 -19 -10 -21 -9 -16 4 4 11
2 14 -8 10 -8 -3 -12 -10 -8 -16 4 -6 0 -8 -10 -4 -10 4 -22 -1 -31 -15 -8
-11 -19 -17 -25 -14 -6 4 -19 -1 -30 -11 -11 -10 -82 -45 -158 -77 -276 -118
-370 -160 -468 -208 -167 -84 -285 -151 -279 -160 3 -5 16 -2 29 6 13 9 30 13
38 10 8 -3 18 -1 22 5 4 7 -1 9 -12 6 -10 -3 -4 1 12 9 17 8 41 13 55 10 22
-4 22 -3 5 5 l-20 9 20 7 c11 3 35 13 53 21 18 8 37 12 42 9 5 -3 12 0 16 6 4
7 3 9 -3 6 -5 -3 -10 0 -10 8 0 10 5 11 18 4 23 -12 42 -12 34 0 -8 14 32 33
55 26 10 -3 21 -1 25 4 4 7 -1 8 -11 4 -11 -4 -15 -3 -10 5 4 6 22 14 41 18
19 3 35 9 35 13 0 3 24 17 53 30 28 13 88 41 132 63 44 22 71 33 60 24 -11 -8
-27 -21 -35 -28 -8 -7 -20 -12 -27 -10 -8 2 -12 -2 -11 -9 2 -6 -33 -30 -77
-53 -94 -50 -119 -60 -110 -46 4 6 -11 -1 -31 -15 -21 -14 -45 -23 -53 -20 -9
3 -12 3 -8 -1 3 -4 -16 -18 -45 -31 -28 -13 -53 -21 -56 -18 -3 2 -10 -2 -16
-10 -6 -8 -47 -33 -91 -55 -60 -31 -71 -40 -45 -35 73 15 369 97 470 131 179
61 327 119 483 191 67 30 133 58 147 61 29 6 50 25 50 45 0 26 22 77 31 71 5
-3 9 -18 9 -35 0 -17 5 -28 12 -26 8 1 15 -20 19 -63 4 -36 12 -84 17 -107 7
-29 6 -45 -2 -54 -8 -9 -7 -10 7 -5 10 3 25 6 33 6 9 0 13 11 12 33 -4 64 2
137 11 137 5 0 11 -18 15 -41 13 -83 29 -120 51 -117 12 2 18 9 16 18 -31 119
-38 244 -16 316 26 86 16 180 -14 127 -5 -10 -12 -16 -14 -13 -9 9 29 335 41
357 7 12 17 46 22 75 29 152 67 216 55 91 -12 -124 -26 -198 -42 -222 -8 -13
-10 -20 -4 -17 8 5 11 -53 11 -206 0 -117 5 -275 10 -351 9 -118 8 -146 -5
-185 -12 -33 -13 -53 -6 -73 12 -36 236 -362 274 -401 33 -32 62 -36 78 -10
11 17 20 10 101 -71 49 -49 87 -91 85 -93 -2 -3 -16 0 -31 6 -15 5 -39 10 -52
10 -16 0 -23 4 -18 11 4 8 0 9 -15 4 -12 -3 -20 -3 -19 2 2 4 -9 19 -22 33
-14 14 -33 36 -42 49 -9 13 -21 22 -27 20 -13 -5 96 -129 113 -129 7 0 13 -6
13 -14 0 -11 -11 -10 -55 5 -31 11 -71 28 -89 39 -29 17 -34 17 -38 5 -3 -8
-7 -22 -10 -31 -8 -24 14 -45 40 -38 16 4 44 -9 101 -49 43 -29 98 -64 121
-77 23 -13 41 -27 40 -31 -3 -11 82 -87 123 -110 19 -11 49 -27 65 -37 17 -10
49 -19 71 -21 39 -2 41 -1 37 22 -4 22 -1 25 21 24 14 -1 28 -8 31 -15 3 -7
10 -10 16 -6 8 4 9 3 5 -4 -4 -7 -2 -12 4 -12 6 0 9 -4 6 -9 -3 -5 1 -14 9
-21 37 -30 40 -100 8 -186 -6 -18 -6 -18 15 0 14 12 22 14 22 7 0 -23 -18 -46
-65 -81 -26 -19 -77 -73 -113 -120 -76 -97 -77 -98 -236 -279 -134 -153 -485
-503 -681 -679 -234 -211 -348 -314 -475 -434 -114 -107 -151 -139 -207 -175
-27 -18 -379 -250 -443 -292 -30 -19 -59 -39 -65 -43 -5 -5 -62 -42 -125 -83
l-115 -75 -77 0 c-76 0 -78 -1 -78 -25 0 -21 -35 -116 -84 -230 -35 -81 -127
-330 -194 -530 l-20 -60 -2 40 c-1 22 -3 49 -5 60 -3 11 -5 152 -5 313 -1 161
-4 301 -8 310 -16 40 -33 -220 -38 -592 l-6 -398 -48 -102 c-26 -55 -53 -119
-60 -141 -7 -22 -21 -57 -31 -77 -18 -35 -26 -88 -13 -88 8 0 43 43 44 53 0 4
18 34 39 65 21 32 62 98 91 147 453 774 487 829 619 995 41 52 122 140 179
195 57 55 140 143 185 195 44 52 185 200 311 329 247 249 253 255 421 407 166
149 566 525 685 644 87 87 229 236 394 415 15 17 75 90 133 163 58 72 109 132
113 132 4 0 11 -23 14 -52 8 -61 19 -83 50 -104 21 -13 28 -13 58 -1 50 22
122 100 161 175 53 102 54 108 17 131 -29 17 -30 20 -13 25 11 4 31 18 44 32
21 23 24 34 24 122 0 112 -17 167 -76 247 -80 108 -165 169 -332 234 -96 38
-371 174 -337 167 14 -3 77 -14 140 -26 115 -20 244 -58 204 -59 -11 -1 -24
-4 -27 -7 -4 -4 75 -56 176 -116 100 -60 193 -116 207 -126 17 -12 21 -13 16
-3 -13 21 11 5 64 -43 173 -157 230 -270 230 -462 0 -89 -16 -146 -70 -254
-63 -127 -214 -345 -231 -334 -5 3 -6 -3 -2 -12 5 -14 3 -16 -11 -11 -10 4
-15 3 -11 -4 9 -14 -24 -61 -37 -53 -7 4 -8 3 -4 -4 4 -7 -21 -46 -58 -92 -36
-44 -68 -75 -71 -69 -8 12 21 59 36 59 6 0 7 5 4 11 -11 18 -55 -51 -49 -77 3
-12 0 -25 -7 -29 -8 -5 -10 -4 -5 3 11 18 0 14 -15 -5 -10 -11 -10 -14 -1 -9
6 4 12 4 12 -1 0 -12 -319 -406 -435 -537 -62 -70 -202 -224 -247 -271 -125
-132 -280 -334 -369 -480 -135 -223 -229 -539 -229 -774 0 -117 29 -286 68
-398 16 -45 27 -85 24 -88 -3 -3 0 -5 6 -5 16 0 15 15 -5 85 -12 46 -17 106
-17 260 -1 186 1 208 27 317 48 202 112 372 193 513 25 44 60 115 79 158 117
270 346 541 760 902 94 81 226 200 294 264 69 64 130 116 137 116 7 0 16 4 21
9 5 5 2 6 -6 1 -9 -5 -12 -3 -9 6 3 8 11 14 19 14 15 0 69 51 69 64 0 3 -14
-9 -30 -27 -17 -18 -30 -29 -30 -25 0 5 26 35 56 68 31 33 50 51 43 40 -13
-18 -12 -19 3 -7 9 8 15 19 13 25 -3 7 11 30 31 52 27 30 32 33 19 12 -26 -44
-13 -40 19 6 22 30 25 39 12 34 -9 -4 -15 -3 -12 1 3 5 31 14 63 21 62 14 123
45 188 95 47 37 38 17 -14 -29 -109 -99 -103 -94 -166 -140 -40 -29 -105 -94
-105 -106 0 -3 -13 -22 -30 -40 -16 -19 -25 -35 -20 -37 10 -4 67 24 86 42 7
6 27 22 45 36 125 96 347 305 404 381 11 14 40 53 65 85 42 55 45 64 48 131 2
39 -2 104 -9 145 l-13 73 -8 -51 c-13 -89 -77 -244 -135 -329 -21 -31 -15 -12
17 56 48 102 63 192 57 333 -10 208 -54 298 -212 424 -100 82 -302 175 -398
186 -12 2 -42 13 -65 25 -49 25 -165 70 -338 131 -383 136 -483 254 -570 675
-39 188 -44 231 -42 380 l1 140 11 -97 c6 -53 15 -100 19 -104 4 -5 7 84 6
196 0 117 3 224 10 250 30 129 92 269 137 311 40 38 39 1 -6 -138 -36 -113
-53 -186 -90 -394 -12 -65 -12 -126 0 -154 7 -19 8 -18 13 5 3 14 8 45 12 70
15 120 158 580 182 588 32 9 37 -40 39 -368 2 -323 11 -460 40 -575 26 -103
86 -249 117 -282 11 -13 17 -23 13 -23 -3 0 24 -31 61 -69 37 -38 78 -79 89
-92 51 -56 290 -239 312 -239 5 0 17 -8 28 -17 61 -54 158 -101 275 -133 l116
-31 18 -42 c25 -58 66 -109 81 -103 8 3 13 0 11 -6 -5 -24 121 -70 250 -92 17
-3 21 -8 26 -36 8 -40 18 -60 28 -54 5 3 2 22 -7 42 -9 20 -17 42 -18 48 -1 7
-7 18 -12 25 -6 8 -14 22 -17 32 -4 9 -17 22 -30 28 -12 5 -31 22 -41 37 -23
34 -92 89 -148 119 -58 31 -68 46 -57 91 4 20 7 37 6 37 -1 1 -16 11 -34 23
-36 25 -38 23 -47 -32 -4 -22 -9 -42 -11 -45 -5 -4 -175 46 -310 92 -202 68
-382 221 -490 417 -102 184 -159 364 -184 580 -12 105 -22 258 -15 245 3 -5
19 -48 37 -95 18 -47 38 -84 45 -83 6 2 9 -3 6 -10 -4 -11 52 -127 61 -127 2
0 3 12 2 28 -2 15 3 33 10 40 7 7 9 20 6 29 -12 32 15 3 53 -57 l38 -60 40 25
c23 14 56 33 74 42 18 9 31 22 28 29 -3 8 12 8 57 -2 34 -7 71 -16 82 -20 57
-21 186 -117 291 -217 52 -49 66 -30 25 35 -73 115 -212 232 -316 264 l-54 17
35 25 35 24 187 -27 c103 -15 220 -33 261 -40 43 -9 80 -11 89 -6 20 11 -53
33 -203 62 -255 49 -360 71 -367 77 -11 12 -68 183 -68 206 0 13 -9 31 -20 41
-12 10 -30 39 -42 64 l-21 46 -8 -50 c-8 -48 -28 -75 -56 -75 -9 0 -13 17 -13
60 0 33 4 60 10 60 6 0 10 7 10 15 0 9 7 29 15 45 8 16 22 60 30 97 8 37 17
79 20 93 3 14 -4 5 -15 -20 -12 -24 -26 -47 -32 -51 -6 -4 -7 -13 -2 -20 6
-12 5 -12 -9 -1 -14 12 -16 9 -20 -30 -2 -24 -3 -8 0 35 5 102 21 161 76 277
48 103 158 293 187 325 10 11 31 44 46 74 l27 55 -6 260 c-10 424 -30 615
-108 1027 -6 36 -9 77 -5 90 3 13 48 60 98 104 51 44 127 113 169 153 59 56
78 70 87 60 13 -16 26 -90 52 -288 25 -191 40 -671 21 -693 -9 -11 -8 -17 5
-28 15 -12 16 -11 10 11 -5 17 -4 20 2 12 7 -11 10 -10 16 3 8 22 8 27 -1 22
-5 -3 -8 72 -8 166 0 172 -6 294 -25 482 -19 202 -28 270 -35 288 -15 37 5 88
56 139 27 27 53 47 58 44 4 -3 14 -34 20 -68 7 -35 15 -72 17 -83 3 -11 11
-72 19 -135 16 -125 20 -648 6 -733 -7 -40 -17 -56 -69 -107 -69 -67 -105
-127 -98 -166 6 -33 -18 -219 -39 -299 -41 -157 -144 -405 -256 -617 -13 -26
-11 -32 6 -18 8 7 15 18 15 26 0 7 4 15 9 19 11 6 -7 -66 -20 -80 -10 -10 -12
-45 -3 -45 14 0 37 39 102 170 61 122 121 263 135 315 3 11 17 52 30 90 14 39
35 108 47 155 12 47 28 108 36 135 7 28 19 92 25 143 9 71 17 98 32 113 11 10
22 17 25 15 13 -14 -51 -399 -89 -531 -42 -144 -128 -358 -174 -435 -12 -19
-24 -43 -28 -53 -4 -11 -12 -15 -19 -11 -7 5 -9 2 -6 -8 4 -8 -13 -47 -36 -87
l-43 -71 -32 40 c-17 22 -36 40 -41 40 -21 0 -8 -54 21 -91 22 -28 26 -39 15
-39 -8 0 -20 8 -25 18 -6 10 -11 12 -11 4 0 -8 -8 -10 -25 -6 -22 5 -25 3 -25
-18 0 -27 28 -117 42 -135 6 -7 7 -46 2 -92 -8 -93 -25 -81 151 -106 81 -11
127 -13 175 -6 52 7 70 6 88 -5 65 -42 123 -73 117 -64 -3 5 -1 10 4 10 6 0
11 -6 11 -13 0 -13 50 -47 70 -47 6 0 8 5 4 12 -4 7 -3 8 4 4 6 -4 9 -13 5
-21 -3 -8 0 -15 6 -15 6 0 11 5 11 11 0 6 15 0 33 -15 50 -41 147 -107 147
-101 0 3 14 -2 31 -10 46 -24 45 -12 -3 28 -24 19 -68 55 -98 81 -30 25 -86
68 -125 96 -38 27 -83 61 -100 75 l-30 26 85 -6 c310 -22 467 -55 532 -112 9
-8 24 -13 32 -11 36 7 -61 100 -153 148 -102 52 -288 87 -484 91 -78 2 -103 6
-119 21 -27 23 -31 23 -17 -3 11 -21 10 -22 -30 -16 -52 7 -97 46 -53 47 9 1
-13 16 -50 35 -36 19 -69 38 -72 43 -3 5 6 29 20 53 14 24 27 52 31 62 3 9 9
17 14 17 5 0 9 6 9 13 0 21 115 212 128 212 7 0 21 15 33 33 15 26 17 37 8 48
-6 8 -16 11 -22 7 -6 -4 -1 8 12 26 13 18 26 30 29 27 3 -3 -3 -16 -14 -28
-12 -14 -13 -18 -3 -10 9 6 20 8 24 4 5 -4 5 -1 1 6 -4 6 -3 12 2 12 14 0 35
57 26 71 -4 7 -3 10 3 6 6 -4 13 2 16 14 5 19 4 20 -18 5 -20 -13 -23 -13 -19
-2 3 8 1 17 -4 20 -5 3 -4 27 5 58 23 91 72 409 85 558 l12 142 33 22 c29 19
33 26 33 67 0 38 -3 47 -17 45 -10 0 -23 -7 -29 -15 -8 -10 -13 72 -17 300 -5
209 -12 348 -23 414 -38 236 -49 362 -35 379 9 11 8 14 -6 12 -14 -1 -24 28
-59 164 -23 91 -55 207 -73 258 -48 144 -89 210 -60 97 28 -111 119 -542 119
-565 0 -19 -12 -36 -40 -59 -50 -40 -73 -37 -82 9 -4 19 -19 91 -33 160 -34
162 -129 526 -160 610 -13 36 -40 118 -60 183 -19 64 -38 117 -40 117 -3 0 -2
-26 1 -57z m-116 -1606 c0 -11 6 -94 14 -186 8 -91 20 -258 26 -371 6 -113 15
-277 21 -365 5 -88 9 -216 9 -285 0 -111 -3 -130 -22 -167 -13 -23 -39 -72
-60 -110 -20 -37 -54 -99 -76 -136 -22 -38 -50 -96 -63 -130 -12 -34 -26 -66
-30 -71 -11 -12 -2 155 12 244 5 36 26 103 46 150 62 147 74 192 79 274 4 86
-3 89 -31 11 -9 -27 -25 -61 -34 -75 -8 -14 -23 -41 -33 -60 -9 -19 -17 -28
-17 -20 -1 9 5 22 12 30 30 34 -31 -18 -76 -65 -78 -80 -101 -113 -162 -235
-32 -63 -62 -117 -66 -120 -3 -3 -10 -24 -14 -47 -4 -24 -10 -45 -14 -47 -4
-3 -27 48 -51 112 -74 198 -170 352 -219 352 -28 0 -27 -4 18 -58 56 -68 90
-143 64 -142 -5 1 -43 43 -87 94 -78 94 -136 136 -170 123 -24 -9 -19 -34 8
-41 27 -7 196 -189 196 -211 0 -23 -8 -19 -58 33 -26 26 -94 78 -152 116 -58
38 -107 71 -109 72 -2 2 6 16 18 32 21 31 26 71 12 107 -7 16 0 28 30 56 31
29 39 43 39 71 0 56 -55 150 -133 225 -76 73 -74 85 8 64 162 -41 428 -53 539
-25 132 33 229 78 275 128 14 14 31 26 39 26 8 0 12 6 8 15 -3 9 3 19 15 26
11 6 19 13 16 16 -10 9 -47 -22 -42 -35 3 -7 1 -11 -4 -8 -5 3 -30 -6 -57 -20
-99 -53 -215 -84 -311 -84 -106 0 -229 14 -304 36 -30 8 -79 19 -109 23 -123
19 -485 126 -527 156 -26 19 -7 32 54 39 77 9 154 -7 233 -48 36 -18 83 -39
105 -46 22 -7 46 -19 53 -27 9 -9 25 -12 42 -8 18 4 31 1 40 -10 20 -24 70
-47 86 -41 10 4 12 2 8 -6 -5 -7 0 -9 14 -6 14 4 20 2 16 -4 -11 -17 91 0 147
24 27 12 49 25 49 30 0 13 -133 108 -159 114 -29 6 -158 42 -181 51 -11 4 -8
8 10 13 l25 8 -25 3 c-14 1 -34 2 -45 1 -17 -2 -18 0 -4 8 9 5 61 15 115 21
180 19 319 51 359 82 6 4 64 39 130 79 66 39 180 116 254 172 171 129 173 130
189 109 6 -9 12 -26 12 -36z m-1818 -481 c29 -13 70 -39 90 -58 20 -19 73 -49
116 -67 104 -43 122 -56 121 -89 0 -22 -2 -23 -8 -9 -4 10 -10 18 -14 18 -7
-1 -123 51 -157 69 -117 65 -242 159 -213 160 7 0 36 -11 65 -24z m2228 -4316
l0 -105 -48 -72 c-113 -173 -178 -214 -104 -67 22 44 52 113 68 154 27 70 29
85 29 219 l0 143 27 -83 c22 -69 27 -103 28 -189z m-3117 -2274 c-10 -13 -54
-68 -99 -122 -130 -159 -297 -424 -444 -701 -18 -35 -37 -63 -41 -63 -5 0 -13
9 -19 20 -12 22 -7 34 43 109 15 23 38 60 50 82 12 22 27 48 32 57 29 50 90
161 145 267 35 66 76 144 91 173 26 49 26 52 8 52 -25 0 -79 27 -79 40 0 15
16 12 52 -10 18 -11 45 -20 61 -20 15 0 27 -4 27 -10 0 -5 9 -2 19 8 10 9 31
28 45 41 14 13 26 29 26 36 0 14 27 28 39 20 5 -2 19 7 31 20 30 32 37 32 13
1z"/>
<path d="M7473 16648 c-4 -7 -8 -16 -8 -20 0 -3 -4 -10 -9 -15 -5 -5 -6 -3 -2
5 10 16 5 16 -95 -12 -131 -36 -176 -66 -69 -46 72 14 76 13 54 -9 -10 -10
-22 -17 -26 -15 -3 2 -28 -5 -55 -17 -33 -14 -60 -19 -88 -15 -24 3 -71 -3
-120 -16 -117 -29 -273 -22 -410 20 -55 16 -104 31 -110 33 -5 1 -18 -1 -28
-6 -10 -4 -21 -5 -24 -1 -4 3 1 6 10 6 35 0 15 18 -27 24 -48 7 -85 1 -130
-21 -23 -12 -26 -17 -15 -25 11 -8 10 -9 -4 -4 -36 12 -83 -67 -93 -156 -6
-50 -3 -65 19 -110 14 -29 47 -77 72 -106 25 -30 51 -62 58 -71 15 -22 77 -61
96 -61 11 0 10 4 -3 19 -20 22 -55 83 -91 159 -37 77 -31 165 13 198 34 27 43
17 36 -40 -9 -73 25 -147 91 -201 l47 -39 -6 -51 c-4 -27 -11 -88 -15 -135 -5
-47 -16 -119 -24 -160 -29 -145 -38 -216 -31 -258 4 -23 10 -42 14 -42 4 0 13
28 19 63 43 226 85 351 190 566 60 123 130 211 169 214 12 1 22 5 22 9 0 4 14
14 30 23 17 9 30 12 30 7 0 -4 -12 -13 -27 -19 -26 -10 -25 -11 13 -6 55 7 62
-9 13 -31 -21 -10 -37 -22 -34 -27 4 -5 0 -9 -8 -9 -23 0 -147 -133 -135 -145
9 -9 411 206 424 226 3 5 -25 9 -63 9 l-68 0 41 23 c28 17 64 26 119 30 134
12 193 33 245 90 25 27 64 69 88 93 34 36 40 46 27 51 -18 6 -44 -5 -128 -59
-56 -36 -124 -64 -132 -56 -10 9 68 77 95 83 35 8 82 43 75 56 -8 13 -22 11
-32 -3z"/>
<path d="M6068 16220 c18 -17 27 -30 21 -30 -6 0 27 -28 74 -62 141 -104 141
-107 -18 -211 l-50 -32 3 -87 c3 -68 0 -91 -13 -112 -17 -25 -13 -52 6 -40 6
3 24 24 40 46 24 34 29 51 29 99 l0 58 59 40 c100 68 127 115 101 173 -6 13
-57 52 -113 87 -56 35 -114 72 -129 82 -41 29 -47 22 -10 -11z"/>
<path d="M8130 16202 c0 -5 15 -19 33 -32 17 -13 38 -32 45 -42 7 -9 40 -38
72 -63 51 -39 60 -51 60 -78 0 -36 29 -102 56 -132 11 -11 34 -42 51 -70 18
-27 44 -63 59 -80 15 -16 66 -78 115 -136 106 -128 218 -233 302 -285 54 -33
71 -39 132 -42 49 -2 82 1 109 13 37 16 38 17 20 34 -11 10 -21 18 -24 18 -53
-5 -240 109 -240 147 0 6 -9 17 -20 24 -12 7 -18 18 -14 24 4 7 3 8 -5 4 -6
-4 -14 0 -17 8 -3 9 -10 16 -15 16 -5 0 -25 14 -45 32 -19 18 -58 49 -85 70
-28 21 -45 38 -37 38 29 0 192 -102 249 -155 9 -8 19 -15 23 -15 16 0 224
-172 349 -288 44 -40 98 -85 120 -100 23 -14 65 -47 93 -73 28 -26 68 -52 90
-59 34 -10 543 -32 553 -24 2 2 19 -8 37 -22 18 -14 39 -24 46 -21 9 4 8 6 -3
6 -9 1 -24 10 -34 21 -18 20 -17 20 8 20 33 0 36 16 4 22 -12 2 -72 5 -132 6
-231 5 -448 30 -492 58 -35 22 -155 215 -142 229 3 3 61 -18 128 -45 68 -28
127 -50 132 -48 6 2 -20 21 -56 42 -140 82 -270 182 -565 434 -47 41 -213 147
-600 386 -42 26 -87 46 -103 46 -31 0 -81 23 -112 51 -11 10 -37 25 -57 33
-20 9 -39 20 -43 26 -7 12 -45 14 -45 2z m408 -308 c164 -112 172 -118 163
-132 -13 -21 -290 149 -306 186 -5 13 1 32 11 32 2 0 62 -39 132 -86z"/>
<path d="M10512 16129 c-12 -38 -8 -89 7 -89 8 0 64 -108 68 -130 5 -28 72
-155 73 -137 0 10 5 15 11 12 6 -4 8 -13 5 -21 -3 -7 0 -11 7 -8 8 3 12 -8 12
-33 0 -21 4 -38 10 -38 5 0 9 9 7 20 -1 12 5 5 16 -16 11 -21 17 -49 14 -70
-2 -19 3 -50 12 -69 9 -19 13 -26 9 -15 -4 11 -8 49 -10 85 -1 36 -3 74 -4 85
-2 34 -38 124 -85 214 -73 137 -129 239 -134 245 -3 3 -11 -13 -18 -35z"/>
<path d="M10282 15663 c-13 -3 -45 -20 -70 -40 -25 -19 -72 -48 -105 -65 -51
-25 -67 -29 -106 -23 -56 8 -178 48 -233 76 -64 32 -53 18 23 -31 38 -24 69
-47 69 -50 0 -4 -27 -12 -60 -18 -58 -10 -63 -10 -115 17 -30 16 -55 27 -55
26 0 -14 63 -64 86 -68 16 -3 -16 -4 -71 -2 -92 4 -296 34 -337 50 -41 16 -10
-8 120 -92 238 -155 339 -202 440 -203 18 0 43 -5 54 -11 55 -30 647 -58 655
-31 3 6 21 12 41 12 21 0 69 9 107 20 94 27 123 26 136 -4 18 -39 78 -9 64 33
-5 16 -12 18 -44 14 -50 -7 -61 11 -19 33 37 19 49 33 41 48 -3 5 -1 6 6 2 12
-8 111 68 111 85 0 5 -36 9 -80 9 -78 0 -81 1 -90 26 -9 22 -15 26 -41 22 -22
-4 -29 -1 -25 9 3 8 1 11 -4 8 -6 -3 -10 -20 -10 -37 0 -27 -2 -29 -17 -17
-15 12 -16 12 -10 -6 6 -17 5 -18 -5 -4 -7 9 -18 14 -25 12 -6 -2 -14 1 -18 6
-4 7 -59 11 -148 11 -79 0 -198 7 -269 17 l-126 17 26 19 c41 31 112 100 123
120 5 9 8 16 7 16 -2 -1 -14 -4 -26 -6z"/>
<path d="M6455 15174 c-4 -42 -5 -137 -3 -210 3 -74 1 -137 -4 -140 -16 -10
-7 -61 25 -136 25 -60 37 -78 52 -78 18 0 39 -21 106 -112 14 -19 30 -28 48
-28 30 0 55 -22 65 -57 11 -35 56 -42 56 -8 0 13 -24 73 -55 135 -7 14 -22 52
-33 85 -29 86 -50 133 -62 140 -19 11 -23 -27 -7 -59 8 -17 18 -48 21 -69 4
-34 3 -36 -14 -27 -10 5 -22 20 -26 32 -4 13 -24 46 -45 74 -22 28 -39 56 -39
62 0 21 -23 25 -37 7 -12 -18 -13 -17 -13 6 0 14 -6 31 -12 38 -10 9 -13 66
-13 217 0 112 -1 204 -2 204 -1 0 -4 -34 -8 -76z"/>
<path d="M6145 14450 c3 -47 16 -108 35 -163 37 -110 43 -120 97 -178 25 -27
42 -53 38 -58 -11 -19 -69 -11 -120 17 -56 31 -94 80 -96 126 -2 29 -2 30 -6
4 -2 -15 1 -37 7 -49 9 -16 9 -23 0 -29 -18 -11 1 -40 57 -90 66 -58 96 -69
218 -77 58 -3 105 -10 105 -14 0 -31 -90 -50 -174 -37 -10 2 -21 -2 -23 -9 -6
-16 51 -32 124 -36 46 -2 68 -9 85 -24 13 -11 33 -24 46 -28 22 -6 19 -10 -40
-67 l-63 -60 63 51 c69 55 77 58 106 36 11 -8 28 -15 37 -15 13 0 20 -11 24
-37 4 -21 10 -47 15 -58 7 -17 11 -14 29 28 12 26 25 47 29 47 4 0 19 -7 35
-14 30 -17 36 -10 10 10 -16 12 -14 13 16 14 19 0 31 -3 28 -7 -6 -5 45 -43
59 -43 6 0 35 67 40 94 3 19 1 18 -16 -4 -37 -47 -42 -51 -53 -47 -22 7 -16
23 15 41 18 10 43 28 54 38 22 19 22 19 44 -12 34 -48 23 -99 -74 -344 -110
-277 -200 -432 -277 -475 -60 -34 -65 -92 -11 -151 18 -21 40 -33 67 -36 l40
-6 -25 17 c-49 35 -80 69 -80 89 0 28 42 88 120 171 55 59 79 98 152 245 117
236 178 439 178 597 0 140 -49 343 -87 357 -19 8 -28 -21 -14 -50 21 -46 11
-47 -36 -3 -87 81 -261 209 -283 209 -26 0 -5 -43 45 -91 50 -50 77 -90 38
-58 -15 13 -15 12 -2 -8 8 -14 16 -18 20 -12 4 7 14 0 25 -16 28 -39 48 -57
101 -86 26 -14 48 -30 50 -35 4 -13 -50 -10 -94 4 -17 6 -33 9 -35 8 -2 -2
-18 -6 -35 -9 -29 -6 -35 -3 -48 22 l-15 29 -137 4 c-126 3 -143 6 -194 31
-87 42 -146 91 -160 134 -6 21 -18 43 -25 50 -7 7 -16 35 -19 61 -11 80 -15
81 -10 2z"/>
<path d="M8285 14435 c-116 -31 -131 -35 -152 -35 -16 0 -20 5 -16 20 3 11 2
20 -2 20 -17 0 -252 -73 -278 -87 -32 -16 -57 -11 -57 12 0 25 -22 18 -109
-35 -46 -27 -81 -44 -78 -37 3 7 13 31 22 55 20 48 14 63 -13 39 -10 -10 -28
-17 -40 -17 -27 0 -49 -23 -57 -61 -10 -44 14 -67 50 -51 14 7 36 10 49 6 14
-3 37 3 60 15 46 26 44 26 56 -5 9 -24 14 -26 43 -18 39 10 96 10 254 -1 126
-8 234 2 314 30 41 15 63 3 29 -15 -24 -13 -27 -40 -4 -40 28 0 136 31 158 45
27 18 112 32 103 18 -4 -6 -20 -16 -37 -23 -29 -12 -42 -40 -19 -40 29 0 138
34 187 59 l55 28 -33 11 c-40 14 -207 16 -212 2 -2 -6 -8 -6 -18 0 -13 8 -12
10 3 10 26 0 20 17 -9 24 -20 5 -228 -7 -291 -17 -18 -3 -20 15 -3 24 8 5 39
18 68 30 29 12 51 26 49 32 -5 16 -17 16 -72 2z"/>
<path d="M12430 14426 c0 -7 -6 -36 -14 -62 -18 -62 -77 -317 -81 -349 -2 -27
-22 -55 -37 -55 -11 0 -38 -25 -38 -35 0 -4 9 -5 20 -2 10 3 24 -1 31 -9 15
-18 -33 -215 -63 -257 -43 -61 12 -113 73 -68 15 12 34 21 41 21 8 0 24 7 37
17 21 14 51 15 290 9 146 -3 311 -13 366 -21 234 -34 339 -45 348 -36 13 13
-174 49 -368 71 -124 14 -599 28 -603 18 -2 -5 -15 -8 -29 -8 -24 0 -25 2 -21
43 3 23 16 65 30 92 64 129 91 173 112 184 23 13 86 139 86 174 0 24 -26 21
-64 -8 -18 -14 -42 -25 -53 -25 -20 0 -20 1 -3 63 9 35 13 72 10 83 -6 16 -8
14 -14 -13 -4 -17 -14 -37 -22 -44 -16 -13 -16 -20 -15 129 0 58 -4 102 -9
102 -6 0 -10 -6 -10 -14z"/>
<path d="M7930 14071 c0 -19 30 -29 150 -50 69 -12 183 -33 253 -47 117 -23
167 -24 167 -6 0 7 -27 14 -330 77 -164 35 -240 43 -240 26z"/>
<path d="M7467 14010 c7 -71 19 -93 90 -162 61 -60 132 -95 200 -101 26 -1 39
-8 41 -19 8 -44 -115 -27 -199 28 -30 19 -72 45 -94 56 -22 11 -54 34 -72 50
-29 28 -53 31 -53 6 0 -6 34 -43 76 -82 42 -39 87 -87 99 -106 25 -39 56 -78
98 -121 23 -24 25 -29 10 -29 -10 0 -42 14 -72 30 -64 36 -70 37 -45 9 34 -38
169 -83 217 -73 l28 6 -21 -42 c-12 -23 -19 -45 -16 -48 4 -3 24 11 45 32 38
37 43 39 106 39 36 0 68 -3 72 -7 4 -4 2 -33 -5 -64 -17 -82 -14 -120 5 -59 8
27 17 46 20 44 2 -3 32 10 65 29 33 19 65 34 72 34 7 0 17 5 24 12 18 18 26 2
14 -29 -22 -61 -22 -66 -2 -29 l22 38 22 -21 c24 -22 36 -19 36 9 0 30 27 45
54 30 22 -11 64 -83 80 -137 4 -13 12 -23 17 -23 17 0 9 34 -20 93 l-30 57 52
0 c75 0 85 10 58 53 -11 19 -21 37 -21 41 0 10 48 7 55 -4 11 -18 83 -50 111
-50 43 0 107 36 129 72 l19 32 -37 -36 c-40 -41 -103 -57 -147 -39 l-25 10 28
0 c20 1 30 8 37 26 7 17 17 25 34 25 13 0 34 9 47 19 29 23 19 29 -56 33 -46
3 -50 5 -51 28 -1 14 -2 31 -3 38 -1 16 -51 15 -94 -3 -32 -13 -37 -13 -56 4
-12 10 -31 16 -44 14 -15 -3 -30 4 -46 21 l-24 25 -32 -25 -32 -24 -17 25
c-13 20 -24 25 -61 25 -42 0 -68 14 -77 42 -3 8 -13 6 -34 -8 -50 -35 -64 -37
-104 -9 l-37 25 -43 -19 c-63 -28 -80 -16 -80 54 0 29 -4 56 -8 59 -16 10 -30
-10 -37 -51 -8 -50 -20 -53 -87 -24 -71 32 -125 77 -139 115 -8 21 -20 36 -29
36 -10 0 -21 14 -28 38 -10 35 -10 34 -5 -18z"/>
<path d="M12560 13594 c-152 -20 -384 -92 -445 -139 -26 -19 -35 -34 -35 -56
0 -35 3 -36 44 -4 69 53 248 113 416 140 112 18 300 20 367 4 105 -25 211 -58
268 -84 52 -23 57 -24 42 -7 -28 30 -143 84 -227 105 -41 10 -91 23 -110 28
-40 10 -267 20 -320 13z"/>
<path d="M9313 12880 c-18 -11 -33 -17 -33 -14 0 3 -12 -1 -27 -9 -51 -27 -78
-37 -138 -52 -57 -15 -89 -21 -162 -30 -76 -8 -94 -16 -91 -38 3 -24 55 -58
90 -59 13 -1 28 -4 33 -8 14 -9 94 -5 135 8 30 10 22 11 -53 8 -48 -2 -90 1
-93 5 -3 5 -10 7 -15 4 -5 -4 -9 -1 -9 5 0 7 -9 9 -22 6 -13 -3 -18 -3 -11 0
7 3 10 11 7 19 -6 15 3 19 111 40 99 20 185 46 185 57 0 4 7 5 15 1 9 -3 15
-2 14 3 -3 19 2 28 9 17 6 -9 23 -5 66 16 44 21 55 29 42 34 -22 9 -16 10 -53
-13z"/>
<path d="M10112 12727 c-23 -61 -67 -193 -97 -292 -30 -99 -69 -213 -86 -253
-22 -50 -29 -76 -22 -83 24 -24 92 104 159 296 40 115 106 366 108 409 2 60
-20 32 -62 -77z"/>
<path d="M6805 12753 c54 -42 108 -57 208 -56 57 0 102 4 105 10 4 6 16 13 27
15 49 11 -40 27 -160 29 -69 0 -142 5 -163 9 -35 8 -36 8 -17 -7z"/>
<path d="M10777 12346 c-18 -45 71 -352 144 -497 58 -117 130 -171 364 -269
152 -64 364 -170 403 -201 14 -10 36 -19 49 -19 l25 0 -24 29 c-13 17 -28 30
-34 30 -6 1 -16 7 -22 14 -6 6 -144 80 -308 162 -379 191 -384 195 -473 406
-33 80 -61 156 -61 168 0 12 -8 36 -17 54 -9 18 -22 57 -28 86 -8 39 -13 50
-18 37z"/>
<path d="M6885 12281 c20 -57 42 -88 81 -112 l34 -20 -22 -38 c-18 -32 -20
-43 -11 -72 l10 -34 0 43 c1 26 7 50 18 62 17 19 18 19 56 -1 32 -16 59 -19
152 -19 61 0 123 2 137 4 14 3 39 5 55 7 17 1 -7 5 -53 10 -131 12 -184 26
-222 59 -19 17 -43 31 -52 31 -10 1 -24 2 -30 3 -7 0 -21 17 -31 36 l-19 35 5
-42 c3 -24 2 -43 -3 -43 -13 0 -100 99 -100 115 0 8 -4 15 -10 15 -5 0 -3 -17
5 -39z"/>
<path d="M1715 12273 c-4 -21 -11 -51 -16 -68 -8 -28 -16 -67 -55 -280 -40
-217 -109 -451 -190 -642 -24 -57 -62 -151 -84 -209 -23 -59 -49 -123 -59
-143 -38 -73 -81 -167 -102 -221 -11 -30 -24 -59 -28 -65 -5 -5 -34 -59 -66
-120 -74 -141 -77 -145 -93 -145 -9 0 -11 7 -7 23 14 45 98 244 155 369 33 70
60 137 60 148 0 10 5 22 10 25 6 3 10 14 10 24 0 10 43 168 96 352 53 184 102
361 110 394 13 57 41 164 84 325 26 94 28 143 7 164 -9 9 -18 13 -20 9 -11
-18 -57 -221 -58 -253 0 -43 -13 -88 -129 -460 -152 -488 -191 -623 -196 -675
-3 -27 -17 -71 -30 -98 -36 -68 -155 -357 -161 -390 -3 -15 -9 -30 -14 -33 -5
-3 -9 -14 -9 -25 0 -10 -4 -19 -10 -19 -12 0 -13 25 -1 48 5 9 15 37 21 62 14
51 100 302 137 400 13 36 53 162 89 282 35 119 75 245 89 281 67 178 196 710
176 730 -6 6 -15 -8 -25 -44 -8 -30 -44 -162 -80 -295 -36 -132 -75 -267 -87
-300 -23 -66 -110 -407 -112 -441 -1 -11 -4 -20 -7 -18 -3 2 -16 -32 -30 -75
-20 -66 -42 -101 -56 -88 -2 3 60 255 105 422 23 85 26 126 12 126 -5 0 -12
10 -14 23 -3 14 -4 12 -2 -6 1 -21 -2 -27 -14 -25 -18 4 -17 51 1 97 14 38 32
103 83 316 25 105 53 207 60 227 23 60 45 179 36 195 -9 18 -199 -552 -322
-967 -127 -432 -205 -687 -238 -785 -16 -49 -35 -121 -40 -160 -6 -38 -13 -85
-17 -102 -9 -44 7 -42 33 5 49 86 271 718 339 965 3 9 10 17 15 17 6 0 8 -8 5
-17 -3 -10 -10 -38 -16 -63 -6 -25 -29 -103 -50 -175 -50 -164 -91 -300 -146
-490 -24 -82 -48 -158 -54 -167 -7 -13 -7 -18 0 -18 7 0 7 -7 0 -22 -10 -21
-10 -22 4 -5 8 11 13 24 10 31 -3 8 10 11 41 11 49 0 50 -1 34 -56 -7 -20 -9
-45 -5 -55 5 -13 17 0 53 57 26 41 58 95 72 120 14 25 39 65 55 90 27 40 73
126 263 484 239 451 288 598 353 1070 5 33 14 82 19 108 13 56 27 257 18 257
-3 0 -9 -17 -12 -37z"/>
<path d="M2460 11920 c0 -5 19 -51 41 -102 23 -51 63 -146 90 -210 63 -152
180 -398 189 -398 38 0 -13 149 -117 350 -83 159 -129 250 -162 323 -19 42
-41 62 -41 37z"/>
<path d="M6945 11898 c18 -58 86 -118 135 -118 23 0 27 -22 6 -39 -12 -10 -15
-8 -19 11 -2 13 -5 -1 -6 -29 0 -30 3 -53 9 -53 6 0 10 9 10 19 0 28 49 64 79
58 14 -3 34 1 45 8 12 7 46 16 76 19 66 8 143 27 136 33 -2 2 -40 -1 -84 -7
-52 -8 -95 -9 -124 -3 -23 5 -54 6 -68 3 -33 -8 -97 6 -130 30 -15 11 -35 35
-44 55 -19 39 -31 47 -21 13z"/>
<path d="M12584 11892 c-10 -9 -58 -43 -107 -75 -85 -56 -146 -126 -147 -167
0 -9 -5 -21 -12 -28 -7 -7 -9 -12 -5 -12 11 0 140 101 155 121 7 10 25 30 40
46 71 74 133 167 76 115z"/>
<path d="M12061 11735 c-95 -48 -111 -59 -111 -80 0 -29 19 -40 80 -50 25 -4
88 -15 140 -25 52 -10 119 -21 148 -24 29 -3 101 -13 160 -21 59 -8 122 -17
140 -19 17 -3 32 -1 32 5 0 5 -3 8 -7 7 -5 0 -15 2 -23 5 -18 8 -240 50 -408
77 -157 25 -187 33 -187 49 0 8 38 35 84 61 98 57 114 70 84 70 -12 0 -71 -25
-132 -55z"/>
<path d="M1836 11693 c-4 -21 -8 -56 -11 -78 -14 -115 -27 -200 -36 -222 -16
-44 -8 -153 12 -153 4 0 8 8 8 18 1 21 17 144 31 232 17 110 24 240 12 240 -6
0 -13 -17 -16 -37z"/>
<path d="M8935 11656 c-27 -7 -149 -57 -270 -110 -298 -132 -336 -151 -328
-161 5 -4 3 -5 -3 -2 -7 4 -29 1 -50 -7 -28 -10 -35 -16 -23 -20 9 -4 36 0 60
9 24 9 82 29 129 46 169 58 590 233 587 243 -5 16 -45 16 -102 2z"/>
<path d="M4840 11359 c-25 -4 -130 -8 -235 -8 -144 0 -224 -5 -330 -21 -228
-35 -575 -108 -575 -122 0 -12 85 -9 175 8 44 8 190 29 325 48 220 31 266 34
447 32 185 -2 204 -3 224 -21 24 -21 35 -45 314 -640 100 -214 227 -484 283
-600 129 -271 170 -357 372 -785 92 -195 202 -425 243 -510 41 -85 116 -243
166 -350 201 -424 312 -656 321 -670 16 -26 20 -4 6 36 -20 57 -167 378 -233
509 -30 61 -138 292 -240 515 -101 223 -190 414 -197 425 -7 11 -55 112 -106
225 -51 113 -112 243 -135 290 -97 194 -175 366 -175 387 0 31 24 -4 67 -96
57 -123 325 -661 329 -661 7 0 -26 81 -78 190 -30 63 -65 138 -78 165 -13 28
-43 93 -68 145 -24 52 -57 122 -72 155 -48 105 -139 287 -149 299 -5 6 -9 13
-9 16 2 15 -15 50 -22 45 -8 -5 5 -40 31 -89 6 -10 12 -27 14 -38 3 -11 12
-27 22 -35 10 -8 12 -12 6 -8 -8 4 -13 0 -13 -10 0 -9 5 -13 10 -10 6 4 10 -6
10 -22 l0 -28 -20 25 c-10 14 -52 95 -91 180 -40 85 -112 240 -161 344 -48
104 -88 197 -88 207 0 11 -4 19 -10 19 -5 0 -10 5 -10 10 0 26 20 4 49 -52 17
-35 41 -74 52 -88 19 -25 19 -25 0 27 -39 101 -73 179 -96 219 -13 23 -34 65
-45 95 -12 30 -37 84 -56 121 -19 37 -34 76 -34 87 0 47 -40 58 -140 40z"/>
<path d="M9877 11320 c-11 -31 -77 -349 -94 -447 -13 -79 -15 -105 -6 -114 10
-10 13 -9 17 2 8 25 104 433 110 470 7 38 -18 118 -27 89z"/>
<path d="M8340 11274 c0 -9 29 -64 64 -123 81 -134 162 -284 233 -431 64 -132
60 -127 73 -114 31 31 -226 552 -322 656 -29 31 -48 36 -48 12z"/>
<path d="M8130 10960 c-8 -15 -2 -53 26 -167 19 -82 40 -172 45 -200 5 -29 13
-77 18 -105 73 -400 122 -814 122 -1019 1 -74 12 -121 22 -89 10 32 27 322 27
456 0 234 -34 578 -76 764 -45 197 -78 322 -95 349 -23 38 -72 44 -89 11z"/>
<path d="M7552 10884 c-14 -29 -31 -155 -42 -314 -12 -177 -12 -877 0 -905 5
-11 10 -18 11 -15 1 3 5 149 9 325 9 440 24 749 41 853 9 58 -1 90 -19 56z"/>
<path d="M1845 10649 c-66 -28 -160 -68 -210 -88 -115 -48 -311 -148 -395
-202 -36 -23 -119 -96 -184 -163 l-120 -121 -104 2 c-105 3 -142 -6 -142 -32
0 -26 31 -45 75 -45 24 0 47 -5 51 -11 5 -8 34 -10 95 -6 87 7 88 6 108 -21
12 -15 25 -32 30 -38 19 -23 426 -662 464 -729 22 -38 82 -134 134 -212 51
-79 109 -172 129 -208 20 -36 40 -67 44 -70 34 -21 -5 69 -88 205 -19 30 -62
102 -96 160 -35 58 -85 141 -113 185 -283 451 -311 500 -322 558 -6 32 -19 70
-29 85 -26 37 -72 135 -72 154 0 8 -10 27 -21 42 -18 23 -20 32 -10 52 13 30
151 120 386 251 99 56 210 119 246 140 37 21 119 63 183 92 110 51 138 71 99
71 -10 -1 -72 -23 -138 -51z"/>
<path d="M7287 10630 c-19 -16 -48 -55 -64 -87 -32 -60 -133 -365 -133 -400 0
-11 -6 -26 -14 -32 -11 -10 -15 -4 -18 29 -2 23 1 53 8 68 6 15 14 65 17 112
4 47 10 102 13 123 5 30 4 37 -9 37 -10 0 -18 -12 -21 -32 -20 -130 -31 -248
-31 -333 l0 -100 27 -3 c36 -4 49 21 109 232 66 229 94 304 130 346 l29 35 20
-24 c18 -21 20 -38 20 -165 0 -77 -5 -202 -10 -276 -6 -74 -11 -364 -12 -645
-1 -609 12 -772 82 -1033 35 -127 110 -252 151 -252 25 0 24 17 -3 60 -97 159
-148 364 -182 738 -25 262 -28 480 -15 852 8 195 14 444 14 552 0 186 -1 198
-20 212 -30 23 -50 19 -88 -14z"/>
<path d="M8023 10653 c-21 -4 -23 -10 -23 -81 0 -47 -6 -93 -17 -120 -15 -41
-16 -76 -4 -451 19 -598 27 -742 42 -773 34 -66 119 -74 161 -15 23 32 23 32
26 455 2 373 4 424 18 429 14 5 15 20 9 107 -8 125 -30 300 -44 344 -5 18 -7
41 -5 50 5 13 4 14 -4 4 -7 -11 -11 -8 -16 11 -9 38 -69 54 -143 40z"/>
<path d="M6942 10585 c-16 -14 -39 -48 -51 -77 -26 -67 -66 -237 -82 -353 -18
-133 -18 -606 0 -673 8 -26 8 -25 15 15 4 23 5 46 2 51 -2 4 -1 41 4 82 5 41
19 152 30 245 33 271 98 576 135 632 9 13 23 27 32 30 20 8 49 -10 45 -29 -1
-8 5 -15 13 -15 10 0 15 11 15 34 0 76 -95 111 -158 58z"/>
<path d="M13907 10550 c-26 -33 -45 -65 -42 -70 3 -5 1 -11 -5 -15 -5 -3 -10
-1 -10 5 0 6 -11 -2 -25 -18 -14 -16 -47 -47 -75 -68 -38 -29 -47 -41 -39 -51
8 -9 7 -14 -5 -19 -10 -4 -15 -13 -12 -21 3 -8 2 -12 -3 -9 -4 3 -17 -3 -28
-13 -46 -43 -92 -54 -67 -16 9 14 21 25 28 25 6 0 4 -4 -4 -10 -8 -5 -11 -12
-7 -16 9 -10 38 16 31 28 -3 5 2 8 12 6 13 -2 19 3 18 14 -1 10 1 17 5 16 3 0
13 0 21 1 13 1 13 2 0 11 -16 10 -43 -7 -34 -22 3 -5 0 -8 -7 -6 -19 4 -79
-33 -72 -45 3 -4 -1 -7 -8 -5 -19 4 -189 -74 -183 -84 3 -4 -1 -5 -9 -2 -8 3
-37 -6 -65 -20 -27 -14 -52 -22 -56 -19 -3 4 -6 1 -6 -6 0 -7 -4 -10 -8 -7 -5
3 -60 -13 -122 -34 -62 -22 -116 -38 -118 -35 -7 7 -14 3 168 110 253 149 379
235 380 258 0 17 -26 4 -113 -57 -51 -35 -164 -100 -252 -145 -88 -44 -230
-123 -315 -176 -85 -52 -161 -95 -167 -95 -7 0 -13 -4 -13 -9 0 -6 -8 -9 -17
-9 -25 1 -81 -23 -66 -29 6 -2 24 4 40 13 41 26 16 3 -44 -40 -29 -21 -57 -35
-63 -31 -5 3 -10 0 -10 -8 0 -8 -12 -23 -27 -33 -22 -14 -25 -14 -15 -2 9 11
10 18 2 23 -5 3 -10 2 -10 -3 0 -6 -7 -13 -16 -16 -32 -12 -25 2 11 24 27 17
33 25 23 31 -7 5 -8 9 -2 9 6 0 14 -3 18 -7 3 -4 15 -7 26 -8 16 -1 18 1 7 13
-10 12 -9 14 8 9 23 -8 53 7 36 17 -16 10 -122 -24 -115 -36 4 -7 2 -8 -5 -4
-13 9 -81 -14 -81 -27 0 -5 6 -7 13 -4 38 16 48 16 22 1 -33 -19 -67 -24 -76
-11 -4 5 -16 4 -28 -2 -11 -6 -32 -9 -45 -5 -18 4 -27 1 -34 -13 -6 -11 -81
-47 -196 -93 -102 -41 -182 -76 -178 -78 12 -4 203 43 198 49 -2 2 16 5 40 5
l44 1 -29 -36 c-16 -20 -57 -62 -90 -95 -57 -55 -72 -76 -53 -76 5 0 65 54
134 119 110 104 131 120 169 126 24 4 53 12 64 18 11 6 29 10 40 8 11 -2 17 0
14 3 -4 4 -20 8 -37 11 -17 2 -37 6 -44 10 -7 4 -5 0 4 -8 10 -8 15 -17 11
-20 -9 -9 -23 -9 -21 1 1 4 -3 17 -10 29 -11 20 -10 22 4 16 9 -3 19 -1 23 5
9 15 51 3 45 -13 -3 -7 5 -15 17 -18 16 -4 29 1 46 20 13 14 27 23 30 20 7 -8
-55 -62 -141 -122 -39 -27 -123 -86 -186 -130 -63 -44 -126 -92 -140 -106 -14
-14 -47 -41 -73 -59 -38 -27 -50 -31 -57 -21 -11 19 -61 -13 -125 -81 -56 -59
-490 -441 -508 -447 -7 -3 -6 4 3 15 14 18 14 18 -2 5 -10 -7 -18 -19 -18 -26
0 -8 -10 -22 -23 -32 -13 -10 -67 -64 -119 -121 -104 -110 -160 -191 -283
-402 -43 -74 -91 -153 -106 -175 -35 -50 -144 -338 -164 -435 -32 -154 -11
-386 50 -531 14 -35 28 -78 30 -94 6 -63 114 -325 256 -622 71 -148 290 -486
307 -473 10 7 10 7 -66 127 -74 116 -257 467 -287 548 -10 28 -31 77 -46 110
-16 34 -32 76 -35 95 l-7 35 23 -20 c12 -11 31 -37 41 -57 11 -21 23 -38 28
-38 4 0 21 -19 38 -42 17 -24 45 -51 62 -61 36 -21 40 -15 10 16 -12 12 -18
16 -14 8 5 -9 4 -12 -3 -7 -6 4 -8 14 -5 23 5 12 2 15 -10 10 -9 -3 -19 -1
-23 5 -4 7 -3 8 4 4 21 -13 13 12 -10 31 -13 10 -49 70 -80 133 -78 159 -92
227 -92 460 -1 209 14 319 69 515 18 66 36 136 40 155 10 45 36 100 48 100 5
0 6 -14 3 -32 -4 -18 -9 -142 -13 -275 -5 -235 -5 -246 21 -370 41 -197 82
-331 97 -316 5 5 2 31 -7 58 -26 84 -39 222 -39 405 0 133 4 181 15 200 14 25
14 25 27 -25 41 -153 96 -289 128 -315 20 -16 29 5 14 32 -7 13 -21 52 -31 88
-64 225 -81 470 -41 587 25 73 99 186 199 303 75 88 358 369 434 430 24 19 71
57 104 84 78 62 160 136 151 136 -4 0 -25 -14 -46 -31 -21 -17 -39 -27 -39
-22 0 4 -6 1 -13 -7 -7 -8 -30 -28 -52 -45 -22 -16 -45 -34 -51 -40 -6 -5 -21
-17 -34 -25 -12 -8 -32 -24 -44 -35 -13 -11 -58 -49 -101 -85 -94 -79 -79 -64
-249 -243 -139 -147 -250 -281 -261 -318 -7 -20 -20 -25 -29 -11 -7 12 59 136
118 221 60 88 152 183 221 231 28 19 95 73 150 120 113 98 381 300 397 300 5
0 23 9 39 21 l29 20 0 -30 c0 -57 31 -166 62 -218 64 -106 147 -119 249 -41
44 33 45 34 52 8 3 -10 17 -22 33 -26 24 -6 33 -2 65 35 21 23 65 84 98 134
51 77 76 103 152 161 49 38 96 74 102 80 7 6 47 38 91 71 82 62 211 194 229
232 7 17 19 23 42 23 17 0 36 -5 42 -11 19 -19 107 -12 207 16 95 27 96 27
130 9 41 -22 342 -266 459 -371 84 -76 131 -100 82 -42 -47 57 -298 322 -375
397 -137 134 -326 287 -452 367 -27 17 -48 32 -48 35 0 3 30 16 68 28 102 36
256 114 361 182 181 119 367 345 312 379 -6 4 -2 12 9 18 17 11 18 10 14 -15
-3 -23 -3 -24 7 -9 6 10 8 30 4 44 -6 24 -5 25 11 12 15 -12 17 -12 13 0 -10
28 -25 20 -72 -39z m-1193 -768 c-40 -29 -72 -62 -60 -62 4 0 24 12 46 26 22
15 43 25 45 22 9 -9 -83 -68 -98 -62 -8 3 -31 -10 -53 -31 -22 -20 -69 -54
-107 -77 -37 -22 -70 -45 -73 -49 -3 -5 -10 -7 -15 -4 -5 4 -9 1 -9 -5 0 -7
-7 -10 -14 -7 -9 4 -13 1 -11 -6 5 -15 -41 -50 -55 -42 -6 4 -8 10 -5 15 3 6
-7 2 -24 -8 -21 -11 -26 -19 -18 -25 7 -6 4 -6 -8 -2 -15 5 -17 3 -8 -6 12
-12 37 -3 28 11 -3 4 2 10 10 14 29 11 24 -12 -8 -37 -27 -21 -36 -23 -50 -13
-15 12 -14 15 11 38 86 79 401 309 444 325 61 22 74 15 32 -15z m-500 -348 c9
-4 21 -15 27 -26 8 -15 8 -19 0 -14 -6 4 -29 -7 -51 -25 -25 -21 -51 -32 -70
-32 -17 0 -26 -3 -20 -7 8 -5 6 -9 -5 -14 -9 -3 -22 -3 -27 1 -7 3 -8 1 -4 -5
6 -11 -5 -16 -26 -13 -9 1 -60 -60 -54 -66 4 -4 30 10 128 71 18 11 29 15 25
9 -4 -6 -39 -30 -79 -54 -40 -24 -75 -46 -78 -49 -8 -10 -143 -96 -162 -102
-10 -4 -19 -1 -22 7 -3 9 46 53 147 129 84 64 175 133 202 155 28 22 51 40 52
40 1 1 9 -2 17 -5z m-1518 -1500 c-3 -9 -6 -22 -6 -30 0 -9 -5 -12 -12 -8 -7
4 -8 3 -4 -5 4 -6 0 -35 -8 -64 -31 -106 -48 -260 -48 -429 0 -93 -4 -168 -8
-168 -21 0 -35 103 -34 255 0 160 0 160 42 290 23 72 47 140 54 153 13 25 33
31 24 6z"/>
<path d="M10307 10151 l-27 -41 87 0 c105 1 206 13 248 31 29 12 28 12 -50 24
-44 7 -114 15 -156 19 l-75 7 -27 -40z"/>
<path d="M4135 10105 c-93 -19 -92 -18 -97 -89 -3 -44 -10 -71 -26 -94 -13
-17 -20 -36 -17 -42 4 -6 -1 -7 -10 -3 -14 5 -16 0 -14 -23 4 -55 -120 -276
-129 -230 -9 43 12 130 48 205 l39 81 -49 0 c-66 0 -96 -13 -120 -52 -30 -49
-38 -87 -60 -284 -31 -283 -28 -303 47 -291 63 11 153 118 198 237 15 41 43
105 61 143 18 37 30 67 27 67 -3 0 6 9 20 20 49 39 63 29 92 -67 15 -49 35
-117 46 -152 30 -100 27 -116 -26 -140 -25 -11 -58 -29 -72 -41 -14 -11 -36
-20 -49 -20 -14 0 -25 -8 -29 -20 -3 -10 -21 -28 -39 -40 -49 -30 -89 -85 -73
-99 18 -14 141 84 133 106 -3 8 -1 11 4 8 5 -3 20 3 32 15 33 31 105 62 127
55 16 -5 20 -23 31 -134 26 -260 7 -315 -165 -478 -66 -62 -137 -121 -159
-132 -23 -10 -66 -37 -96 -60 -30 -23 -113 -71 -185 -107 -71 -36 -155 -80
-185 -99 -30 -19 -61 -34 -67 -35 -7 0 -37 -13 -67 -29 -53 -29 -160 -56 -177
-45 -16 10 -9 51 20 115 39 85 99 169 195 270 43 46 101 114 127 150 40 53 67
77 145 125 53 32 106 72 118 88 11 16 43 51 69 78 26 27 45 53 42 58 -12 19
-48 9 -85 -22 -21 -18 -48 -42 -61 -53 -13 -12 -39 -38 -58 -59 -18 -21 -61
-56 -95 -77 -72 -47 -383 -369 -472 -488 -75 -102 -134 -200 -134 -222 0 -10
8 -25 17 -34 27 -27 151 -16 228 20 33 15 71 32 85 37 14 6 39 17 55 26 17 9
84 44 151 77 66 34 141 75 165 92 49 34 181 103 196 103 6 0 28 13 50 29 22
16 56 37 76 48 77 40 314 263 302 284 -5 7 -4 10 3 5 6 -3 22 17 39 51 27 55
28 64 28 198 0 77 -2 174 -4 216 -5 99 9 122 109 185 43 27 76 52 74 56 -3 4
1 6 8 3 7 -3 49 13 93 35 44 22 85 40 91 40 7 0 34 15 61 34 27 18 63 37 80
40 18 4 37 14 44 22 6 8 20 14 31 14 11 0 45 13 76 29 31 17 78 37 103 46 83
28 112 65 35 44 -46 -13 -354 -147 -417 -182 -122 -68 -202 -107 -218 -107
-10 0 -38 -13 -62 -30 -25 -17 -57 -30 -75 -30 -29 0 -32 3 -37 38 -2 20 -26
120 -52 221 l-48 183 18 53 c9 29 14 58 11 64 -9 14 -44 13 -121 -4z"/>
<path d="M3230 10026 c-19 -7 -48 -18 -63 -25 -16 -6 -54 -37 -86 -69 -90 -90
-178 -280 -236 -507 -8 -33 -20 -74 -26 -91 -10 -34 -42 -50 -58 -30 -10 13
-71 191 -71 209 0 26 -59 134 -88 161 -58 54 -97 21 -151 -132 -19 -51 -38
-95 -42 -98 -5 -3 -9 -16 -9 -29 0 -13 -12 -38 -27 -56 -31 -36 -49 -91 -62
-188 -5 -35 -15 -68 -23 -72 -46 -29 -83 16 -73 88 3 27 9 86 11 131 8 121 2
125 -141 120 -86 -4 -121 -10 -160 -27 l-50 -23 27 -23 c28 -24 93 -136 183
-314 55 -110 135 -278 135 -285 0 -3 13 -33 29 -68 15 -35 57 -134 92 -222 70
-174 78 -183 146 -165 55 15 73 41 73 105 0 59 -16 94 -80 175 -21 27 -42 67
-46 87 -4 20 -20 62 -35 92 -32 60 -34 77 -19 159 6 31 13 101 16 155 6 105 7
108 78 164 9 7 16 23 16 37 0 22 50 75 71 75 10 0 25 -33 69 -160 36 -106 80
-199 117 -247 28 -38 58 -42 137 -18 67 20 73 28 81 94 5 46 3 66 -10 92 -15
27 -16 48 -11 123 16 215 32 288 96 438 85 202 118 259 163 281 39 20 75 17
99 -6 21 -22 86 -299 92 -397 2 -30 9 -77 15 -105 6 -27 13 -67 16 -88 6 -35
27 -58 42 -43 6 6 -8 103 -27 196 -14 63 -23 190 -21 283 2 103 -31 183 -89
216 -44 24 -52 25 -100 7z"/>
<path d="M640 10018 c0 -22 94 -175 248 -403 184 -273 173 -258 184 -247 6 6
-40 83 -116 196 -69 103 -142 215 -162 249 -58 98 -138 217 -146 217 -5 0 -8
-5 -8 -12z"/>
<path d="M12358 10013 c-22 -8 -35 -20 -31 -26 3 -6 1 -7 -5 -3 -14 9 -95 -32
-87 -44 3 -5 -2 -13 -11 -18 -15 -9 -15 -10 5 -17 22 -7 20 -25 -4 -25 -18 0
-28 30 -14 46 8 10 8 14 1 14 -14 0 -108 -100 -105 -111 2 -5 -4 -6 -12 -3 -8
4 -15 2 -15 -4 0 -5 -24 -28 -52 -50 -114 -89 -118 -99 -9 -27 62 41 118 75
123 75 6 0 8 8 6 18 -4 15 2 19 30 20 42 3 95 29 87 42 -4 6 1 10 9 10 8 0 18
5 22 12 5 8 2 9 -12 4 -10 -5 -28 -11 -39 -13 l-20 -5 20 15 c11 9 30 17 43
17 12 0 22 5 22 10 0 6 -12 8 -27 5 -24 -5 -25 -4 -10 5 9 6 25 9 35 6 11 -4
32 7 57 29 45 39 45 40 -7 18z"/>
<path d="M1075 9359 c-9 -13 36 -79 49 -72 5 3 6 1 2 -5 -4 -6 44 -87 107
-179 63 -92 127 -190 142 -218 16 -27 56 -95 90 -150 35 -55 83 -140 108 -190
95 -190 301 -529 682 -1125 273 -427 339 -521 439 -627 53 -58 66 -64 66 -33
0 24 -397 693 -580 978 -59 92 -193 307 -397 637 -29 47 -92 137 -140 201
-124 163 -247 336 -354 496 -51 76 -95 136 -99 133 -4 -2 -7 1 -7 8 0 11 -92
157 -99 157 -1 0 -6 -5 -9 -11z"/>
<path d="M13454 9219 c-27 -17 -88 -70 -137 -118 -48 -47 -94 -93 -103 -101
-26 -25 -315 -468 -378 -580 -101 -179 -223 -420 -270 -535 -24 -60 -60 -147
-80 -192 -44 -103 -102 -278 -120 -363 -7 -36 -20 -82 -29 -102 -9 -21 -21
-72 -26 -114 -13 -92 -13 -94 -2 -94 6 0 9 8 9 18 -1 25 47 202 88 322 124
363 337 820 454 975 50 66 200 316 200 334 0 16 70 123 161 246 70 94 231 257
287 290 17 11 32 25 32 32 0 22 -34 15 -86 -18z"/>
<path d="M11070 9013 c-51 -54 -119 -139 -153 -190 -34 -50 -63 -90 -65 -88
-3 2 9 33 26 70 17 36 29 65 26 65 -6 0 -66 -67 -125 -141 -68 -86 -149 -207
-197 -299 -40 -76 -102 -238 -102 -268 0 -9 44 51 98 133 139 212 374 536 522
720 104 129 94 128 -30 -2z"/>
<path d="M14203 8763 c40 -478 46 -586 37 -603 -5 -10 -22 -20 -37 -22 -52 -6
-53 -15 -98 -853 -30 -558 -99 -1416 -160 -1990 -75 -712 -122 -1111 -135
-1149 -6 -16 -10 -45 -10 -65 0 -20 -9 -83 -21 -141 -11 -58 -26 -152 -34
-210 -8 -58 -23 -145 -34 -195 -21 -94 -38 -214 -28 -205 11 10 69 263 64 281
-3 10 -1 19 3 21 9 3 50 178 71 298 6 36 14 83 19 105 158 812 247 1479 315
2360 14 182 32 386 40 455 22 189 53 567 66 825 18 343 1 1067 -26 1138 -4 9
-14 17 -22 17 -13 0 -15 -11 -10 -67z"/>
<path d="M13268 8719 c-47 -27 -161 -240 -286 -534 -179 -420 -320 -776 -456
-1155 -59 -162 -117 -320 -130 -350 -13 -30 -30 -77 -39 -105 -8 -27 -29 -93
-47 -145 -37 -114 -120 -392 -120 -403 0 -5 6 -2 13 5 18 18 38 78 31 90 -4 6
-1 13 5 17 6 4 33 68 60 142 26 74 55 148 64 165 9 17 34 83 56 148 42 120 80
220 296 761 141 354 197 490 285 695 34 80 84 198 111 263 61 147 127 281 169
342 40 58 33 91 -12 64z"/>
<path d="M5376 8528 c-53 -114 -86 -195 -122 -303 -52 -152 -134 -432 -134
-455 0 -12 -10 -42 -21 -68 -12 -25 -25 -73 -29 -107 -5 -33 -14 -85 -20 -115
-7 -30 -14 -65 -16 -76 -5 -27 -41 -41 -126 -49 -61 -6 -67 -5 -73 15 -4 11
-2 26 3 33 5 7 26 91 47 186 37 175 61 241 109 298 30 36 24 45 -39 62 -82 22
-100 17 -133 -41 -42 -74 -105 -138 -161 -164 -54 -24 -91 -59 -91 -85 0 -15
-67 -65 -76 -56 -2 2 19 34 46 72 49 68 61 93 38 79 -7 -4 -8 -3 -4 5 4 6 11
9 16 6 4 -2 13 10 20 28 8 17 20 40 28 49 16 19 8 38 -16 38 -25 0 -102 -43
-102 -57 0 -7 -4 -13 -9 -13 -16 0 -91 -126 -171 -288 -44 -89 -80 -167 -80
-175 0 -20 21 -37 47 -37 31 0 105 38 98 50 -3 5 1 7 9 4 15 -6 40 17 229 215
72 75 117 101 117 68 0 -33 -53 -304 -65 -333 -12 -30 -18 -33 -85 -44 -71
-12 -180 -60 -230 -100 l-25 -21 50 7 c28 3 59 15 70 25 32 28 90 49 140 49
25 0 45 -2 45 -5 0 -3 -11 -42 -25 -87 -87 -294 -108 -327 -260 -414 -89 -51
-176 -87 -265 -109 -36 -9 -80 -21 -98 -26 -18 -6 -49 -9 -69 -7 -38 3 -49 -7
-34 -31 17 -27 316 42 456 105 74 33 127 69 118 79 -4 4 -3 5 3 2 7 -4 35 14
63 39 37 34 62 69 91 128 38 80 89 220 110 304 10 39 16 45 81 78 85 42 161
55 187 30 17 -15 19 -14 31 8 10 17 25 25 55 29 22 3 70 11 106 18 36 7 97 13
135 15 85 2 185 14 204 24 23 12 -95 21 -146 10 -112 -23 -317 -39 -330 -26
-3 3 0 19 6 38 6 18 20 71 32 118 11 47 31 105 44 130 39 74 121 271 134 325
7 28 23 70 37 94 26 48 29 55 15 46 -5 -3 -12 -1 -16 4 -3 6 5 8 19 5 19 -3
27 2 40 30 9 19 16 41 16 49 0 8 13 40 29 72 17 33 27 63 24 68 -3 6 -1 7 5 3
7 -4 21 13 37 44 14 27 31 50 39 50 7 0 21 9 31 19 17 19 15 21 -36 54 -68 43
-95 57 -108 57 -6 0 -26 -33 -45 -72z"/>
<path d="M4223 8500 c-20 -8 -23 -17 -23 -62 0 -29 -11 -99 -25 -156 -14 -57
-25 -120 -25 -142 0 -54 -22 -74 -135 -119 -55 -22 -131 -53 -170 -70 -70 -30
-70 -30 -87 -10 -24 28 -69 16 -146 -39 -40 -29 -40 -51 0 -91 60 -58 60 -58
346 94 63 34 116 55 136 55 l32 0 -7 -72 c-4 -40 -14 -118 -23 -174 -15 -92
-23 -362 -16 -517 2 -66 23 -75 28 -11 1 21 8 49 14 61 6 13 8 39 4 63 -3 23
-2 58 3 78 6 20 17 69 27 107 9 39 46 178 83 309 l66 240 110 52 c64 30 159
65 227 83 64 17 147 42 185 55 37 14 100 32 139 40 78 16 252 85 217 85 -13 1
-73 -13 -135 -30 -62 -17 -133 -35 -158 -40 -56 -10 -210 -52 -270 -72 -102
-36 -211 -67 -230 -67 -11 0 -23 6 -26 13 -2 7 9 71 25 142 20 89 26 135 20
147 -5 9 -39 26 -75 38 -73 22 -79 23 -111 10z"/>
<path d="M14370 8410 c-23 -14 -16 -276 16 -690 26 -324 28 -391 32 -1100 4
-815 -5 -1158 -39 -1370 -22 -145 -42 -272 -64 -420 -9 -58 -20 -125 -25 -150
-18 -93 -22 -125 -12 -115 16 18 99 453 118 620 3 33 8 74 10 90 37 261 53
556 59 1045 8 650 -5 1117 -45 1666 -11 150 -20 308 -20 353 0 82 -3 88 -30
71z"/>
<path d="M6340 8389 c0 -26 23 -82 116 -279 47 -102 108 -230 133 -285 70
-149 94 -192 99 -177 6 19 -90 232 -102 225 -5 -3 -6 -1 -2 5 10 17 -193 444
-207 435 -6 -3 -7 -1 -3 5 4 6 -2 28 -13 49 -11 21 -20 31 -21 22z"/>
<path d="M5725 8040 c-102 -22 -258 -151 -440 -364 -58 -68 -55 -84 22 -101
27 -6 63 -21 79 -32 47 -33 86 -35 136 -9 23 13 115 60 202 106 88 45 183 96
210 114 28 17 90 52 138 76 48 25 90 51 93 58 11 28 -8 32 -38 9 -18 -13 -49
-29 -69 -36 -21 -7 -41 -18 -45 -26 -5 -7 -37 -27 -73 -45 -36 -18 -85 -46
-109 -63 -24 -17 -78 -43 -119 -58 -41 -15 -82 -35 -92 -44 -29 -27 -169 -66
-191 -54 -52 28 -3 83 142 158 134 70 172 94 237 148 84 72 88 93 24 135 -46
30 -68 36 -107 28z"/>
<path d="M3599 7661 c-57 -19 -121 -51 -185 -93 -55 -35 -119 -77 -145 -92
-44 -28 -119 -116 -119 -141 0 -23 67 -56 123 -62 46 -5 61 -1 122 30 81 40
224 91 233 82 9 -9 -3 -17 -178 -125 -91 -56 -181 -114 -200 -129 -19 -15 -60
-44 -90 -64 -73 -48 -95 -66 -88 -72 7 -8 58 16 58 27 0 4 5 8 12 8 6 0 21 8
32 19 20 17 237 133 420 223 43 22 120 53 170 69 71 24 195 78 214 94 1 1 0 9
-3 18 -12 28 -66 42 -170 42 -85 -1 -116 -6 -205 -34 -58 -18 -131 -44 -163
-58 -33 -13 -64 -22 -69 -21 -18 6 50 66 116 103 64 36 249 85 319 85 60 0 73
70 19 99 -10 5 -45 12 -77 15 -49 5 -76 1 -146 -23z"/>
<path d="M4230 7129 c-24 -5 -65 -21 -90 -37 -25 -16 -54 -33 -65 -39 -50 -25
-198 -96 -278 -132 -76 -35 -318 -189 -332 -210 -2 -5 -95 -6 -205 -4 -172 4
-209 2 -256 -13 -40 -12 -61 -15 -73 -7 -9 5 -41 51 -71 101 -45 75 -56 87
-58 67 -2 -13 15 -62 40 -112 39 -81 46 -89 83 -101 50 -17 74 -17 210 2 143
19 191 21 300 8 54 -6 91 -7 93 -1 2 5 36 9 75 10 40 1 110 4 157 8 83 8 82 8
-52 9 -76 1 -138 6 -138 10 0 5 10 18 23 29 30 28 184 133 194 133 4 0 46 25
93 55 47 30 91 55 98 55 7 0 28 11 45 24 52 39 227 125 243 119 22 -8 44 4 38
22 -7 17 -9 17 -74 4z"/>
<path d="M3338 6593 c-10 -2 -21 -16 -25 -30 -5 -21 0 -31 23 -50 39 -31 85
-43 167 -43 l68 0 -18 24 c-10 13 -33 32 -52 41 -27 13 -32 20 -28 40 4 24 3
25 -57 24 -33 -1 -69 -3 -78 -6z"/>
<path d="M3140 6310 c-8 -5 -27 -10 -43 -10 -15 0 -55 -12 -90 -26 -48 -19
-80 -25 -142 -26 -44 0 -88 -5 -98 -10 -17 -9 -18 -11 -2 -28 21 -23 126 -43
161 -30 54 21 134 1 134 -33 0 -8 -3 -8 -12 1 -7 7 -16 12 -22 12 -5 0 -1 -6
9 -14 11 -8 23 -12 27 -10 4 2 33 -22 65 -53 86 -85 142 -127 149 -109 6 17
-9 47 -87 178 -33 54 -59 100 -59 103 0 3 6 5 13 5 7 0 27 -20 45 -45 17 -25
36 -45 42 -45 15 0 12 32 -5 54 -32 42 -15 76 38 76 18 0 19 2 7 10 -8 5 -37
10 -65 10 -27 0 -57 -5 -65 -10z"/>
<path d="M2440 6197 c0 -9 5 -17 12 -17 6 0 8 -3 4 -7 -8 -8 104 -116 172
-166 24 -18 101 -88 170 -156 70 -68 131 -123 135 -122 5 1 6 -2 3 -7 -7 -12
90 -203 99 -194 4 4 -9 -15 -29 -41 -46 -61 -53 -90 -31 -123 19 -29 224 -265
240 -276 5 -4 11 -1 13 7 4 15 -78 123 -165 218 -29 32 -53 66 -53 75 0 9 18
46 40 81 l39 65 -28 20 c-15 11 -42 48 -60 82 -18 35 -43 74 -57 89 -13 14
-23 28 -22 31 2 13 -104 124 -113 118 -5 -3 -8 0 -7 8 2 7 -3 12 -10 10 -8 -1
-11 2 -8 7 3 5 -9 20 -27 34 -17 14 -45 37 -62 51 -51 46 -82 66 -90 58 -5 -4
-5 -2 -2 4 9 16 -19 38 -35 28 -7 -4 -10 -3 -5 1 10 11 -53 76 -66 68 -6 -3
-7 -2 -4 4 4 5 -7 23 -23 38 -24 23 -30 25 -30 12z"/>
<path d="M5017 6096 c-19 -28 -74 -49 -172 -66 -98 -17 -111 -13 -108 33 3 44
-4 45 -60 13 -23 -14 -60 -28 -82 -32 -36 -7 -37 -8 -15 -14 22 -6 19 -8 -28
-24 -29 -10 -51 -20 -49 -22 2 -3 35 7 72 21 82 31 106 31 131 4 17 -19 27
-21 89 -16 39 3 104 16 145 31 41 14 76 26 78 26 7 0 0 -42 -14 -84 -13 -37
-30 -59 -81 -101 -36 -30 -96 -70 -134 -90 -64 -33 -86 -55 -57 -55 31 0 204
95 242 134 56 55 94 136 98 206 3 49 1 55 -18 58 -13 2 -27 -6 -37 -22z"/>
<path d="M7509 5728 c-1 -7 0 -23 1 -35 3 -38 -33 -48 -170 -48 -69 0 -208 -6
-310 -13 -102 -6 -284 -16 -405 -22 -331 -15 -409 -22 -391 -32 38 -21 620
-34 904 -19 236 12 295 20 380 48 44 14 52 21 52 41 0 44 -58 119 -61 80z"/>
<path d="M4284 5622 c2 -4 -15 -7 -38 -8 -38 -1 -219 -50 -333 -90 -53 -19
-178 -127 -261 -225 -82 -96 -86 -104 -66 -123 10 -11 34 -16 74 -16 69 0 97
9 135 44 15 14 46 31 69 37 130 35 161 49 191 85 l31 37 160 23 c87 13 209 29
269 34 191 18 249 26 294 43 24 10 52 17 62 17 10 0 31 11 46 24 21 19 25 27
17 36 -16 16 -183 -1 -434 -45 -107 -19 -244 -39 -304 -45 -61 -6 -142 -18
-180 -27 -120 -26 -125 -27 -132 -9 -8 22 41 75 76 82 21 5 338 104 395 124
12 4 3 7 -28 7 -26 1 -45 -2 -43 -5z"/>
<path d="M5122 5560 c-56 -27 -114 -58 -129 -69 -43 -35 4 -26 79 14 91 48
218 65 194 26 -12 -19 -132 -69 -196 -82 -80 -16 -86 -29 -11 -29 72 0 147 26
214 75 52 39 61 69 29 98 -29 27 -70 19 -180 -33z"/>
<path d="M5366 5585 c-3 -8 -3 -29 0 -47 10 -61 -22 -90 -284 -264 l-243 -162
-172 -56 c-193 -63 -311 -118 -340 -158 -19 -25 -19 -29 -4 -51 12 -19 33 -29
91 -42 42 -9 78 -20 81 -26 9 -14 45 -11 45 5 0 8 -21 37 -46 65 -31 35 -44
55 -37 62 6 6 40 14 76 19 72 11 179 48 236 82 20 12 76 51 125 87 49 36 173
122 275 191 225 151 258 191 235 277 -7 26 -30 37 -38 18z"/>
<path d="M4850 5430 c-25 -4 -94 -24 -155 -43 -99 -33 -280 -67 -349 -67 -34
0 -89 -28 -81 -40 6 -9 40 -8 200 6 65 6 371 104 420 135 32 20 32 20 -35 9z"/>
<path d="M11275 5066 c-22 -8 -123 -45 -225 -84 -102 -39 -252 -96 -335 -127
-262 -99 -425 -164 -600 -240 -94 -40 -216 -85 -273 -99 -129 -33 -162 -49
-162 -80 0 -26 31 -39 100 -41 19 -1 65 -7 103 -13 79 -15 259 -16 302 -3 48
14 14 19 -170 25 -93 3 -181 8 -194 12 -23 7 -23 7 10 25 19 10 44 18 57 19
12 0 30 4 40 10 9 5 44 16 77 24 33 8 85 21 115 30 89 25 214 44 231 35 9 -5
43 -4 75 1 33 6 187 24 344 40 339 36 461 54 521 74 51 18 75 20 84 7 6 -10
-144 -341 -155 -341 -3 0 -12 16 -19 36 -7 20 -34 58 -60 85 -40 42 -53 49
-85 49 -61 0 -99 -31 -152 -125 -27 -47 -108 -183 -128 -215 -13 -19 -49 -78
-81 -130 -59 -96 -96 -156 -227 -357 -40 -62 -93 -145 -118 -184 -124 -195
-239 -232 -470 -152 -152 53 -237 67 -398 67 -130 -1 -132 -1 -126 20 4 12 12
44 19 71 7 28 31 96 54 153 44 110 49 132 27 132 -12 0 -72 -117 -101 -200 -7
-19 -32 -71 -55 -115 l-42 -80 -84 -22 c-188 -49 -376 -176 -451 -304 -10 -16
-21 -29 -24 -29 -4 0 -15 -34 -25 -76 -27 -122 -5 -293 40 -310 9 -3 14 -10
11 -14 -3 -4 2 -11 11 -14 27 -10 5 -25 -36 -23 -26 1 -39 6 -36 13 2 6 -1 17
-7 23 -18 18 4 13 27 -6 20 -18 21 -17 5 2 -49 63 -145 314 -194 505 -43 171
-49 190 -58 190 -5 0 -7 10 -3 23 3 12 2 40 -1 62 l-7 40 -7 -35 c-10 -45 0
-127 13 -108 6 8 8 1 4 -22 -16 -95 109 -503 190 -620 l35 -51 -53 7 c-29 3
-120 19 -201 35 -159 31 -197 35 -181 19 27 -27 277 -100 344 -100 17 0 30 -5
30 -11 0 -20 -108 -4 -241 36 -68 20 -188 57 -266 81 -171 53 -289 79 -441 95
-101 11 -115 11 -129 -4 -45 -45 70 -91 402 -163 66 -14 212 -56 325 -93 367
-122 499 -153 800 -187 209 -23 620 -15 736 14 187 48 359 125 559 249 102 63
108 61 129 -41 10 -46 16 -92 14 -102 -4 -24 -255 -152 -436 -223 -139 -54
-451 -151 -488 -151 -29 0 -74 -20 -74 -33 0 -13 164 -2 240 17 117 30 136 31
168 7 36 -25 68 -26 142 -5 30 9 66 17 80 18 22 1 24 -2 22 -44 -2 -27 4 -57
14 -75 9 -16 18 -41 20 -55 9 -53 14 -57 35 -31 22 27 27 24 58 -34 43 -81 26
-108 -104 -169 -95 -44 -145 -80 -145 -105 0 -31 11 -31 49 -2 20 16 65 41
101 57 174 75 196 120 126 259 l-37 71 24 68 c39 107 84 159 260 299 48 39 58
65 32 87 -20 17 -19 33 5 55 26 23 26 74 0 124 -11 22 -22 57 -26 78 -5 35 -3
40 21 51 14 7 32 12 39 12 7 0 30 13 50 29 29 24 44 28 70 24 44 -7 98 22 157
84 85 88 270 368 419 633 29 52 61 104 70 115 10 11 27 38 39 60 12 22 28 50
37 63 10 13 12 22 5 22 -6 0 -11 -7 -11 -16 0 -8 -4 -13 -9 -10 -21 13 -285
-314 -466 -577 -44 -63 -65 -86 -79 -84 -56 7 -48 21 260 453 275 384 463 654
644 922 66 98 82 132 61 132 -12 0 -96 -98 -147 -171 -21 -30 -87 -116 -147
-190 -59 -74 -221 -286 -360 -471 -138 -186 -258 -338 -265 -338 -7 0 -18 12
-24 26 -11 22 -7 36 35 117 26 51 62 115 80 144 211 341 219 358 216 488 -3
97 -8 79 79 265 19 41 54 116 77 166 29 62 54 100 79 121 23 19 33 33 27 37
-6 4 -16 4 -22 0 -9 -5 -10 1 -4 22 13 51 16 114 5 114 -5 0 -10 -6 -10 -14 0
-8 -4 -16 -8 -18 -5 -1 -18 -30 -29 -63 -27 -82 -19 -79 -373 -128 -399 -55
-563 -66 -545 -37 3 4 49 23 103 41 159 52 325 121 536 223 109 53 209 96 222
96 25 0 31 20 18 54 -8 20 -71 20 -129 2z m-1728 -2167 c0 -25 -5 -43 -13 -46
-10 -4 -11 -10 -4 -23 12 -22 6 -27 -135 -124 -157 -109 -230 -137 -263 -104
-16 16 -15 148 1 168 7 9 32 16 65 17 36 2 59 9 74 23 26 24 40 26 32 5 -4
-10 0 -15 12 -15 11 0 15 4 9 8 -5 4 -11 15 -13 25 -3 15 1 18 20 12 15 -4 19
-3 10 3 -15 10 -7 18 43 42 17 8 32 18 35 21 9 11 65 27 96 28 30 1 31 -1 31
-40z m143 -129 c36 -7 76 -18 90 -25 28 -14 49 -9 67 14 10 14 12 14 18 -1 9
-22 28 -23 44 -4 13 16 54 29 45 15 -3 -5 3 -9 12 -9 50 0 -79 -52 -173 -70
-95 -18 -365 -50 -374 -44 -15 9 -3 21 88 84 48 33 94 58 102 56 9 -2 45 -10
81 -16z"/>
<path d="M3454 4616 c-7 -19 35 -81 121 -176 77 -86 146 -218 168 -320 33
-154 38 -195 28 -223 -22 -58 -9 -77 57 -88 28 -4 62 -15 75 -24 l25 -16 -27
-62 c-31 -75 -95 -166 -215 -307 -96 -113 -133 -149 -155 -150 -20 0 -6 47 33
105 57 85 55 103 -4 48 -55 -51 -90 -107 -90 -145 0 -31 27 -68 48 -68 29 0
87 42 139 100 143 159 253 295 253 314 1 27 26 61 35 47 9 -16 42 4 50 29 4
13 -2 34 -15 55 -30 48 -21 65 32 65 57 0 89 -18 113 -63 22 -40 39 -48 154
-68 87 -16 189 -6 256 25 86 39 140 96 191 204 32 66 68 121 122 183 68 80
106 107 92 68 -2 -8 -5 -41 -5 -74 -1 -33 -7 -73 -14 -90 l-14 -30 -9 35 -10
35 -50 -55 c-82 -89 -105 -155 -78 -224 14 -38 26 -32 45 24 19 58 29 67 45
43 9 -15 10 -12 6 15 -6 32 10 72 28 72 11 0 -2 -67 -20 -102 -19 -37 -92
-368 -100 -454 -5 -49 -2 -87 10 -132 36 -143 17 -212 -131 -464 -98 -167
-144 -275 -122 -288 11 -7 24 11 61 84 41 81 81 145 214 338 69 101 92 225 66
360 -8 41 -3 77 34 245 74 334 86 386 111 457 32 96 30 166 -6 258 -16 40 -35
111 -41 158 -16 120 -19 130 -35 130 -20 0 -31 -31 -50 -142 -8 -51 -17 -103
-20 -115 -3 -11 -24 -32 -48 -46 -29 -17 -52 -42 -70 -74 -37 -70 -54 -82
-143 -98 -87 -17 -124 -36 -124 -64 0 -30 11 -51 27 -51 25 0 -7 -25 -50 -39
-21 -7 -36 -15 -34 -17 5 -5 87 23 102 36 6 5 31 12 55 16 25 4 60 15 77 26
18 11 37 17 42 14 12 -8 2 -45 -20 -77 -42 -61 -223 -103 -349 -81 -79 13
-312 88 -349 111 -13 8 -44 47 -68 86 -25 38 -56 82 -69 96 -15 15 -34 60 -48
110 -28 100 -55 163 -103 242 -19 32 -33 61 -30 64 14 13 59 -11 109 -58 63
-59 178 -124 178 -100 0 11 -172 163 -201 178 -43 21 -270 123 -275 123 -2 0
-7 -7 -10 -14z"/>
<path d="M3022 4587 c-12 -7 -21 -15 -18 -18 2 -2 -7 -5 -21 -6 -36 -2 -184
-105 -238 -165 -43 -48 -75 -121 -75 -174 0 -12 -20 -70 -44 -128 -68 -163
-80 -230 -72 -416 3 -85 13 -191 21 -235 54 -294 58 -360 26 -479 -29 -111
-36 -242 -18 -343 16 -89 108 -387 137 -444 18 -34 84 -89 107 -89 6 0 33 -18
59 -40 54 -45 128 -76 189 -81 45 -4 219 11 212 17 -2 3 -49 11 -103 19 -154
23 -290 77 -332 130 -21 27 -38 82 -28 92 3 3 24 -7 47 -23 40 -28 48 -29 148
-29 97 0 106 2 106 19 0 30 -45 56 -126 72 -133 28 -156 51 -170 169 -4 43
-11 80 -14 83 -11 11 -25 -15 -34 -61 -8 -46 -17 -65 -25 -56 -2 2 -17 54 -34
114 -17 61 -42 151 -57 200 -38 124 -39 137 -25 230 14 89 6 244 -26 490 -8
66 -17 183 -20 260 l-5 140 68 135 68 135 113 78 c63 42 146 103 186 136 40
32 83 64 94 70 22 12 30 41 12 41 -5 0 -31 -11 -57 -25 -57 -30 -344 -165
-351 -165 -10 0 11 57 33 91 13 20 86 84 164 143 77 58 143 111 146 116 9 14
-15 12 -43 -3z"/>
<path d="M8916 4322 c-3 -3 -6 -14 -6 -24 0 -21 16 -24 24 -5 3 6 4 3 3 -7 -2
-16 10 -23 58 -38 35 -11 72 -16 90 -13 18 4 25 3 17 -2 -15 -11 49 -28 161
-43 95 -12 337 -13 337 -1 0 4 -62 11 -137 14 -76 4 -200 18 -276 31 -75 13
-147 22 -160 19 -18 -4 -19 -3 -7 7 12 9 8 10 -20 5 -26 -5 -31 -4 -20 4 11 8
11 11 2 11 -7 0 -24 11 -37 24 -13 13 -26 21 -29 18z"/>
<path d="M4565 3653 c-11 -2 -47 -13 -80 -25 -33 -11 -96 -23 -140 -26 l-80
-7 -6 -46 c-4 -26 -23 -95 -43 -155 -64 -198 -76 -237 -76 -253 1 -14 2 -14
10 0 5 9 11 25 13 35 2 11 13 40 25 67 22 49 60 171 83 265 l13 53 70 -4 c94
-5 150 7 214 46 49 29 51 33 30 39 -18 6 -16 7 10 4 17 -1 32 1 32 6 0 8 -40
9 -75 1z"/>
</g>
</svg>
